<svg xmlns="http://www.w3.org/2000/svg" viewBox="0 0 672.67 147.88"><title>search</title><g id="ea387262-6863-4db9-b016-975972a12cca" data-name="Layer 8"><g id="672d124c-c700-43f5-8972-b0337cd46d1a" data-name="&lt;Group&gt;"><g id="ab65835d-d6d8-434b-b3a6-d0cca0e854fc" data-name="&lt;Group&gt;"><g id="315d4bbb-10e9-4bcc-a978-b239af9ae2c7" data-name="&lt;Group&gt;"><path id="d6305b97-0e39-4a2f-bd7d-fa7afc128395" data-name="&lt;Path&gt;" d="M422.27,115H246.61a12.1,12.1,0,0,1-8.84-3.84l-.27-.3v-5.06H431.38v5.06l-.27.3A12.1,12.1,0,0,1,422.27,115Z" style="fill:#4ecdf4;stroke:#25aae1;stroke-linecap:round;stroke-linejoin:round;stroke-width:2px"/><rect id="933f3000-0539-49eb-9ca3-45c41585dad2" data-name="&lt;Path&gt;" x="237.5" y="105.81" width="193.89" height="5.06" style="fill:#fff;stroke:#25aae1;stroke-linecap:round;stroke-linejoin:round;stroke-width:2px"/><path id="72d77e2b-1a66-410e-82b3-55d2870030d1" data-name="&lt;Path&gt;" d="M334.44,108.57h15.42a8.8,8.8,0,0,0,5-1.41l1.94-1.35H312.12l1.94,1.35a8.8,8.8,0,0,0,5,1.41Z" style="fill:#fff;stroke:#25aae1;stroke-linecap:round;stroke-linejoin:round;stroke-width:2px"/><path id="329db9b5-afa8-451c-9937-cf60d9ee1a27" data-name="&lt;Rectangle&gt;" d="M256.34,6.73H412.54a4.09,4.09,0,0,1,4.09,4.09v95a0,0,0,0,1,0,0H252.24a0,0,0,0,1,0,0v-95A4.09,4.09,0,0,1,256.34,6.73Z" style="fill:#4ecdf4;stroke:#25aae1;stroke-linecap:round;stroke-linejoin:round;stroke-width:2px"/><rect id="9faad07c-059e-45fa-8e7a-0e15d35443aa" data-name="&lt;Rectangle&gt;" x="258.25" y="12.8" width="152.38" height="86.94" style="fill:#fff;stroke:#25aae1;stroke-linecap:round;stroke-linejoin:round;stroke-width:2px"/><rect id="7871db7f-0cad-42a4-8df9-cb10b18988a7" data-name="&lt;Rectangle&gt;" x="269.18" y="41.29" width="25.9" height="25.9" style="fill:#8ae9ff"/><rect id="25b79888-f6dc-41b6-bcac-877351fe5bfc" data-name="&lt;Rectangle&gt;" x="269.18" y="70.48" width="25.9" height="25.9" style="fill:#8ae9ff"/><rect id="a9216e5b-1850-47ce-bf78-24a1ff3df3ca" data-name="&lt;Rectangle&gt;" x="297.08" y="41.29" width="30.45" height="3" style="fill:#8ae9ff"/><rect id="52670edb-db12-4d1d-b9ca-c295c12a1608" data-name="&lt;Rectangle&gt;" x="297.08" y="45.55" width="26.07" height="1.5" style="fill:#8ae9ff"/><g id="7f6b349a-f535-4d0e-975f-4a4c649a7d2f" data-name="&lt;Group&gt;"><rect id="f0f6fe0d-41df-4318-9140-be24bda9e976" data-name="&lt;Rectangle&gt;" x="297.08" y="54.99" width="34.14" height="1.5" style="fill:#4ecdf4"/><rect id="a2f4fb57-fa74-48af-86d1-0164d1fdb5cc" data-name="&lt;Rectangle&gt;" x="332.32" y="54.99" width="15.03" height="1.5" style="fill:#4ecdf4"/><rect id="bf7d490a-e0f0-43ad-8532-b4b18af8b32b" data-name="&lt;Rectangle&gt;" x="348.44" y="54.99" width="28.85" height="1.5" style="fill:#4ecdf4"/><rect id="b2d447b4-f5c7-4198-af19-4c382f3e8cc9" data-name="&lt;Rectangle&gt;" x="297.08" y="57.92" width="34.14" height="1.5" style="fill:#4ecdf4"/><rect id="d5b71761-6cd0-4a5e-a2b8-00e2264e1b36" data-name="&lt;Rectangle&gt;" x="332.32" y="57.92" width="28.62" height="1.5" style="fill:#4ecdf4"/><rect id="afec49d7-db0d-4867-a887-67672148ff0f" data-name="&lt;Rectangle&gt;" x="297.08" y="60.76" width="28.62" height="1.5" style="fill:#4ecdf4"/></g><path id="abee6784-fc1e-4bf0-b33c-cf66d8902c43" data-name="&lt;Path&gt;" d="M299.51,47.93l.39.78a.31.31,0,0,0,.26.19L301,49a.34.34,0,0,1,.19.59l-.62.61a.35.35,0,0,0-.1.31l.15.86a.35.35,0,0,1-.51.36l-.77-.4a.31.31,0,0,0-.32,0l-.78.4a.34.34,0,0,1-.5-.36l.15-.86a.35.35,0,0,0-.1-.31l-.63-.61a.35.35,0,0,1,.19-.59l.87-.13a.32.32,0,0,0,.26-.19l.39-.78A.34.34,0,0,1,299.51,47.93Z" style="fill:#ffd52f"/><path id="5ce87dbe-1f50-46ca-bc7c-8bb8c07958c1" data-name="&lt;Path&gt;" d="M305,47.93l.38.78a.32.32,0,0,0,.26.19l.87.13a.35.35,0,0,1,.19.59l-.62.61a.32.32,0,0,0-.1.31l.14.86a.34.34,0,0,1-.5.36l-.77-.4a.31.31,0,0,0-.32,0l-.78.4a.34.34,0,0,1-.5-.36l.15-.86a.35.35,0,0,0-.1-.31l-.63-.61a.35.35,0,0,1,.19-.59l.87-.13a.32.32,0,0,0,.26-.19l.39-.78A.34.34,0,0,1,305,47.93Z" style="fill:#ffd52f"/><path id="82ff4f3d-d709-4367-bfa6-3bf3af7f3d40" data-name="&lt;Path&gt;" d="M310.42,47.93l.39.78a.32.32,0,0,0,.26.19l.87.13a.35.35,0,0,1,.19.59l-.63.61a.35.35,0,0,0-.1.31l.15.86a.34.34,0,0,1-.5.36l-.78-.4a.31.31,0,0,0-.32,0l-.77.4a.34.34,0,0,1-.5-.36l.14-.86a.32.32,0,0,0-.1-.31l-.62-.61a.35.35,0,0,1,.19-.59l.87-.13a.32.32,0,0,0,.26-.19l.38-.78A.34.34,0,0,1,310.42,47.93Z" style="fill:#ffd52f"/><path id="c7db5910-bc27-4dfd-ac5a-ba084745def5" data-name="&lt;Path&gt;" d="M315.88,47.93l.39.78a.32.32,0,0,0,.26.19l.87.13a.35.35,0,0,1,.19.59l-.63.61a.35.35,0,0,0-.1.31l.15.86a.34.34,0,0,1-.5.36l-.78-.4a.31.31,0,0,0-.32,0l-.77.4a.35.35,0,0,1-.51-.36l.15-.86a.35.35,0,0,0-.1-.31l-.62-.61a.34.34,0,0,1,.19-.59l.86-.13a.31.31,0,0,0,.26-.19l.39-.78A.34.34,0,0,1,315.88,47.93Z" style="fill:#ffd52f"/><path id="b523c2ce-a5fb-4ae8-89f9-b6702df16274" data-name="&lt;Path&gt;" d="M321.34,47.93l.39.78a.31.31,0,0,0,.26.19l.86.13a.34.34,0,0,1,.19.59l-.62.61a.35.35,0,0,0-.1.31l.15.86a.35.35,0,0,1-.51.36l-.77-.4a.31.31,0,0,0-.32,0l-.78.4a.34.34,0,0,1-.5-.36l.15-.86a.35.35,0,0,0-.1-.31l-.63-.61a.35.35,0,0,1,.19-.59l.87-.13a.32.32,0,0,0,.26-.19l.39-.78A.34.34,0,0,1,321.34,47.93Z" style="fill:#ffd52f"/><rect id="6eb73a02-73e7-4ed7-be30-f656690d567d" data-name="&lt;Rectangle&gt;" x="297.08" y="70.48" width="30.45" height="3" style="fill:#8ae9ff"/><rect id="355a68eb-26fa-42bb-948e-c50aadf67cec" data-name="&lt;Rectangle&gt;" x="297.08" y="74.74" width="26.07" height="1.5" style="fill:#8ae9ff"/><g id="78603295-5265-46da-93b4-46998f8cf9cb" data-name="&lt;Group&gt;"><rect id="6271f02d-fb8d-4d8f-8fdf-80ad70f98655" data-name="&lt;Rectangle&gt;" x="297.08" y="84.18" width="34.14" height="1.5" style="fill:#4ecdf4"/><rect id="7bd68ade-85b5-4756-9bf7-e5e457cb5c51" data-name="&lt;Rectangle&gt;" x="332.32" y="84.18" width="15.03" height="1.5" style="fill:#4ecdf4"/><rect id="c380b3ea-fdf5-401c-be82-3864f8e910e9" data-name="&lt;Rectangle&gt;" x="348.44" y="84.18" width="28.85" height="1.5" style="fill:#4ecdf4"/><rect id="0bd7e27c-a035-467e-8bc4-2f50926cb276" data-name="&lt;Rectangle&gt;" x="297.08" y="87.1" width="34.14" height="1.5" style="fill:#4ecdf4"/><rect id="09257d36-40ca-4a95-b8b0-e6afd873bb53" data-name="&lt;Rectangle&gt;" x="332.32" y="87.1" width="28.62" height="1.5" style="fill:#4ecdf4"/><rect id="0ac9262b-ca77-404c-933e-c9f51927a869" data-name="&lt;Rectangle&gt;" x="297.08" y="89.95" width="28.62" height="1.5" style="fill:#4ecdf4"/></g><path id="3237092d-2729-4113-87e8-bdf16a32b5ed" data-name="&lt;Path&gt;" d="M299.51,77.11l.39.79a.35.35,0,0,0,.26.19l.86.12a.34.34,0,0,1,.19.59l-.62.62a.34.34,0,0,0-.1.3l.15.86a.35.35,0,0,1-.51.37l-.77-.41a.36.36,0,0,0-.32,0l-.78.41a.35.35,0,0,1-.5-.37l.15-.86a.34.34,0,0,0-.1-.3l-.63-.62a.35.35,0,0,1,.19-.59l.87-.12a.36.36,0,0,0,.26-.19l.39-.79A.35.35,0,0,1,299.51,77.11Z" style="fill:#ffd52f"/><path id="0528fd91-0148-4303-bfe5-e190bdff7658" data-name="&lt;Path&gt;" d="M305,77.11l.38.79a.36.36,0,0,0,.26.19l.87.12a.35.35,0,0,1,.19.59l-.62.62a.31.31,0,0,0-.1.3l.14.86a.34.34,0,0,1-.5.37l-.77-.41a.36.36,0,0,0-.32,0l-.78.41a.35.35,0,0,1-.5-.37l.15-.86a.34.34,0,0,0-.1-.3l-.63-.62a.35.35,0,0,1,.19-.59l.87-.12a.36.36,0,0,0,.26-.19l.39-.79A.35.35,0,0,1,305,77.11Z" style="fill:#ffd52f"/><path id="e434019c-2c4d-4a5c-b609-bf18a885d06d" data-name="&lt;Path&gt;" d="M310.42,77.11l.39.79a.36.36,0,0,0,.26.19l.87.12a.35.35,0,0,1,.19.59l-.63.62a.34.34,0,0,0-.1.3l.15.86a.35.35,0,0,1-.5.37l-.78-.41a.36.36,0,0,0-.32,0l-.77.41a.34.34,0,0,1-.5-.37l.14-.86a.31.31,0,0,0-.1-.3l-.62-.62a.35.35,0,0,1,.19-.59l.87-.12a.36.36,0,0,0,.26-.19l.38-.79A.35.35,0,0,1,310.42,77.11Z" style="fill:#ffd52f"/><path id="b6f05969-000f-4056-9592-5996e580cf4f" data-name="&lt;Path&gt;" d="M315.88,77.11l.39.79a.36.36,0,0,0,.26.19l.87.12a.35.35,0,0,1,.19.59l-.63.62a.34.34,0,0,0-.1.3l.15.86a.35.35,0,0,1-.5.37l-.78-.41a.36.36,0,0,0-.32,0l-.77.41a.35.35,0,0,1-.51-.37l.15-.86a.34.34,0,0,0-.1-.3l-.62-.62a.34.34,0,0,1,.19-.59l.86-.12a.35.35,0,0,0,.26-.19l.39-.79A.35.35,0,0,1,315.88,77.11Z" style="fill:#ffd52f"/><path id="d09511ee-4b61-4ffe-9c8d-023d5805dcc2" data-name="&lt;Path&gt;" d="M321.34,77.11l.39.79a.35.35,0,0,0,.26.19l.86.12a.34.34,0,0,1,.19.59l-.62.62a.34.34,0,0,0-.1.3l.15.86A.35.35,0,0,1,322,81l-.77-.41a.36.36,0,0,0-.32,0l-.78.41a.35.35,0,0,1-.5-.37l.15-.86a.34.34,0,0,0-.1-.3L319,78.8a.35.35,0,0,1,.19-.59l.87-.12a.36.36,0,0,0,.26-.19l.39-.79A.35.35,0,0,1,321.34,77.11Z" style="fill:#4ecdf4"/><g id="f07983ff-6f11-4d7b-a5fe-6df3b6b9b50b" data-name="&lt;Group&gt;"><rect id="81f51a6d-807b-46b3-b204-b7ef5979523c" data-name="&lt;Rectangle&gt;" x="406.7" y="12.8" width="3.93" height="86.94" style="fill:#4ecdf4;stroke:#25aae1;stroke-linecap:round;stroke-linejoin:round;stroke-width:2px"/><rect id="d2682b18-7203-4488-9791-5c65549e3d0c" data-name="&lt;Rectangle&gt;" x="407.63" y="52.53" width="2.07" height="26.43" style="fill:#8ae9ff"/><rect id="958ca262-af32-45aa-9f99-2c4090278277" data-name="&lt;Rectangle&gt;" x="407.6" y="96.73" width="2.1" height="2.1" style="fill:#0097c6"/><polygon id="15d9f0da-7a40-418e-8856-8d46ec7c6afc" data-name="&lt;Path&gt;" points="408.65 98.46 409.54 97.11 408.65 97.11 407.75 97.11 408.65 98.46" style="fill:#fff"/></g><g id="e9495c16-d601-431c-ab36-b01dfa3cf748" data-name="&lt;Group&gt;"><g id="a956c000-1a54-41b8-9565-b30671a074a6" data-name="&lt;Group&gt;"><path id="8c38054e-3564-4217-ac38-8252d9a21693" data-name="&lt;Path&gt;" d="M252.24,25.23v6a7.48,7.48,0,0,0,14.95,0v-6Z" style="fill:#8ae9ff;stroke:#25aae1;stroke-linecap:round;stroke-linejoin:round;stroke-width:2px"/><path id="3cfa6b58-e4aa-4991-aec5-5b55f11465d3" data-name="&lt;Path&gt;" d="M267.19,25.23v6a7.47,7.47,0,0,0,14.94,0v-6Z" style="fill:#fff;stroke:#25aae1;stroke-linecap:round;stroke-linejoin:round;stroke-width:2px"/><path id="fb7200bc-e99a-4025-86bf-1b4ecc3aed3c" data-name="&lt;Path&gt;" d="M282.13,25.23v6a7.48,7.48,0,0,0,14.95,0v-6Z" style="fill:#8ae9ff;stroke:#25aae1;stroke-linecap:round;stroke-linejoin:round;stroke-width:2px"/><path id="02f0a009-3a11-44eb-8ea8-789c3cb7adcf" data-name="&lt;Path&gt;" d="M297.08,25.23v6a7.47,7.47,0,0,0,14.94,0v-6Z" style="fill:#fff;stroke:#25aae1;stroke-linecap:round;stroke-linejoin:round;stroke-width:2px"/><path id="d00caa8c-7401-468a-955d-85aa2ca7e733" data-name="&lt;Path&gt;" d="M312,25.23v6a7.48,7.48,0,0,0,15,0v-6Z" style="fill:#8ae9ff;stroke:#25aae1;stroke-linecap:round;stroke-linejoin:round;stroke-width:2px"/><path id="89e6c3ec-fef8-4f9b-9a67-c74efaf20002" data-name="&lt;Path&gt;" d="M327,25.23v6a7.47,7.47,0,0,0,14.94,0v-6Z" style="fill:#fff;stroke:#25aae1;stroke-linecap:round;stroke-linejoin:round;stroke-width:2px"/><path id="4a162a01-43dc-4201-a8d0-26b16a0c816d" data-name="&lt;Path&gt;" d="M341.91,25.23v6a7.48,7.48,0,0,0,14.95,0v-6Z" style="fill:#8ae9ff;stroke:#25aae1;stroke-linecap:round;stroke-linejoin:round;stroke-width:2px"/><path id="2e794c8c-1096-4eae-8080-180acaaaec16" data-name="&lt;Path&gt;" d="M356.86,25.23v6a7.47,7.47,0,0,0,14.94,0v-6Z" style="fill:#fff;stroke:#25aae1;stroke-linecap:round;stroke-linejoin:round;stroke-width:2px"/><path id="59b69039-cef2-4144-a405-d53e8da460b1" data-name="&lt;Path&gt;" d="M371.8,25.23v6a7.48,7.48,0,0,0,14.95,0v-6Z" style="fill:#8ae9ff;stroke:#25aae1;stroke-linecap:round;stroke-linejoin:round;stroke-width:2px"/><path id="fa534b58-0c8b-4b35-aeaf-d39427e2482b" data-name="&lt;Path&gt;" d="M386.75,25.23v6a7.47,7.47,0,0,0,14.94,0v-6Z" style="fill:#fff;stroke:#25aae1;stroke-linecap:round;stroke-linejoin:round;stroke-width:2px"/><path id="79ae6e0b-557e-4cdb-813e-48d752535065" data-name="&lt;Path&gt;" d="M401.69,25.23v6a7.48,7.48,0,0,0,14.95,0v-6Z" style="fill:#8ae9ff;stroke:#25aae1;stroke-linecap:round;stroke-linejoin:round;stroke-width:2px"/></g><g id="6ad8205d-bdd7-42a8-91cc-ecc2ff579cd3" data-name="&lt;Group&gt;"><polygon id="b9aa8436-bb56-4e4a-aa25-e0fc7ccb1fc4" data-name="&lt;Path&gt;" points="271.9 12.8 258.03 12.8 252.24 25.23 267.19 25.23 271.9 12.8" style="fill:#8ae9ff;stroke:#25aae1;stroke-linecap:round;stroke-linejoin:round;stroke-width:2px"/><polygon id="e33d798e-4a1e-4273-b968-8056ed3dc47c" data-name="&lt;Path&gt;" points="285.78 12.8 271.9 12.8 267.19 25.23 282.13 25.23 285.78 12.8" style="fill:#fff;stroke:#25aae1;stroke-linecap:round;stroke-linejoin:round;stroke-width:2px"/><polygon id="49614105-e582-4707-9f37-e8a4c76c8e21" data-name="&lt;Path&gt;" points="299.65 12.8 285.78 12.8 282.13 25.23 297.08 25.23 299.65 12.8" style="fill:#8ae9ff;stroke:#25aae1;stroke-linecap:round;stroke-linejoin:round;stroke-width:2px"/><polygon id="1a75cadb-48df-4f11-b47b-bbdc420d6527" data-name="&lt;Path&gt;" points="313.52 12.8 299.65 12.8 297.08 25.23 312.02 25.23 313.52 12.8" style="fill:#fff;stroke:#25aae1;stroke-linecap:round;stroke-linejoin:round;stroke-width:2px"/><polygon id="9ae4c23b-1d36-4a7c-a919-d8fd2cbbb60e" data-name="&lt;Path&gt;" points="327.39 12.8 313.52 12.8 312.02 25.23 326.97 25.23 327.39 12.8" style="fill:#8ae9ff;stroke:#25aae1;stroke-linecap:round;stroke-linejoin:round;stroke-width:2px"/><polygon id="08992974-5bc5-4518-a1ca-350303cd75af" data-name="&lt;Path&gt;" points="341.27 12.8 327.39 12.8 326.97 25.23 341.91 25.23 341.27 12.8" style="fill:#fff;stroke:#25aae1;stroke-linecap:round;stroke-linejoin:round;stroke-width:2px"/><polygon id="27649671-44c3-4fe1-b4c0-3bc67bb68be5" data-name="&lt;Path&gt;" points="355.14 12.8 341.27 12.8 341.91 25.23 356.86 25.23 355.14 12.8" style="fill:#8ae9ff;stroke:#25aae1;stroke-linecap:round;stroke-linejoin:round;stroke-width:2px"/><polygon id="1fef8c41-ec03-4845-88a5-17a211ebb273" data-name="&lt;Path&gt;" points="369.01 12.8 355.14 12.8 356.86 25.23 371.8 25.23 369.01 12.8" style="fill:#fff;stroke:#25aae1;stroke-linecap:round;stroke-linejoin:round;stroke-width:2px"/><polygon id="3cd31d67-13cf-4bb4-b88d-8b8f6b3ead1a" data-name="&lt;Path&gt;" points="382.88 12.8 369.01 12.8 371.8 25.23 386.75 25.23 382.88 12.8" style="fill:#8ae9ff;stroke:#25aae1;stroke-linecap:round;stroke-linejoin:round;stroke-width:2px"/><polygon id="5e8b9aa5-76a3-45f9-8193-1a4b73f73d3a" data-name="&lt;Path&gt;" points="396.76 12.8 382.88 12.8 386.75 25.23 401.69 25.23 396.76 12.8" style="fill:#fff;stroke:#25aae1;stroke-linecap:round;stroke-linejoin:round;stroke-width:2px"/><polygon id="846f2fd3-c1fc-4825-af43-8a4f589dcf05" data-name="&lt;Path&gt;" points="410.63 12.8 396.76 12.8 401.69 25.23 416.63 25.23 410.63 12.8" style="fill:#8ae9ff;stroke:#25aae1;stroke-linecap:round;stroke-linejoin:round;stroke-width:2px"/></g></g><g id="2d1d7acb-3d2f-4ca2-828b-6849ee40dd2a" data-name="&lt;Group&gt;"><polygon id="d77809ae-a144-472a-bbb4-f8b2f37b07e7" data-name="&lt;Path&gt;" points="292.9 64.03 288.33 59.46 291.78 57.88 282.14 55.23 284.79 64.86 286.38 61.42 290.94 65.98 292.9 64.03" style="fill:#fff"/><line id="de0cf90c-5452-4872-8dde-ccfd7ea75311" data-name="&lt;Path&gt;" x1="277.72" y1="50.8" x2="281.3" y2="54.39" style="fill:none;stroke:#25aae1;stroke-miterlimit:10"/><line id="4452dbc5-c42a-4734-9bdc-41c8d9b33e98" data-name="&lt;Path&gt;" x1="276.04" y1="57.17" x2="281.07" y2="57.8" style="fill:none;stroke:#25aae1;stroke-miterlimit:10"/><line id="a00de03c-8cc5-4259-aae9-bc8a0f1c8ffd" data-name="&lt;Path&gt;" x1="284.09" y1="49.13" x2="284.71" y2="54.16" style="fill:none;stroke:#25aae1;stroke-miterlimit:10"/></g></g><g id="2a58bce9-86a9-4a9f-a3f0-98a951ddd540" data-name="&lt;Group&gt;"><rect id="095fb253-9a19-4b36-85e2-bfe92acb5615" data-name="&lt;Rectangle&gt;" x="63.96" y="13.32" width="32.81" height="59.28" rx="3.13" ry="3.13" style="fill:#4ecdf4;stroke:#25aae1;stroke-linecap:round;stroke-linejoin:round;stroke-width:2px"/><rect id="c02542ae-f9b5-4698-96c4-fc219bcf0053" data-name="&lt;Rectangle&gt;" x="67.55" y="17.26" width="25.64" height="46.54" style="fill:#fff;stroke:#25aae1;stroke-linecap:round;stroke-linejoin:round;stroke-width:2px"/><line id="abac948d-8ae3-49de-b79a-5894f8cd2c1a" data-name="&lt;Path&gt;" x1="76.15" y1="68.21" x2="84.58" y2="68.21" style="fill:none;stroke:#25aae1;stroke-miterlimit:10;stroke-width:2px"/></g><g id="19cd4a6f-c162-4112-b3d4-08fa920f44e6" data-name="&lt;Group&gt;"><polygon id="1f4d1480-f0dc-4676-98d1-b5a92c6c6df0" data-name="&lt;Path&gt;" points="616.15 56.34 583.41 56.34 585.16 21.09 613.52 21.09 616.15 56.34" style="fill:#4ecdf4;stroke:#25aae1;stroke-linecap:round;stroke-linejoin:round;stroke-width:2px"/><path id="dd77e5a0-ebef-44ad-8603-79db88a80d5f" data-name="&lt;Path&gt;" d="M591.15,25.79V18.1a8.63,8.63,0,0,1,8.63-8.63h0a8.64,8.64,0,0,1,8.63,8.63v7.69" style="fill:none;stroke:#25aae1;stroke-linecap:round;stroke-linejoin:round;stroke-width:2px"/></g><g id="c61c10ff-fe92-4f10-b40b-8dfc394d5b5e" data-name="&lt;Group&gt;"><rect id="e1251dab-738e-49cb-89fe-f0e157c921ed" data-name="&lt;Rectangle&gt;" x="158.41" y="53.58" width="47.29" height="28.71" rx="2" ry="2" style="fill:#fff;stroke:#25aae1;stroke-linecap:round;stroke-linejoin:round;stroke-width:2px"/><rect id="4ec4169f-5137-404c-a1b0-4cb1c0de1105" data-name="&lt;Rectangle&gt;" x="158.41" y="60.17" width="47.29" height="4.27" style="fill:#4ecdf4;stroke:#25aae1;stroke-linecap:round;stroke-linejoin:round;stroke-width:2px"/><line id="8bdbab5d-af92-4655-93b4-9cebe3b4cc5e" data-name="&lt;Path&gt;" x1="160.9" y1="75.31" x2="175.65" y2="75.31" style="fill:#fff;stroke:#25aae1;stroke-miterlimit:10;stroke-width:2px"/><line id="6de4f562-764a-43ea-a6fc-0a6e19377b8e" data-name="&lt;Path&gt;" x1="179.21" y1="75.31" x2="193.96" y2="75.31" style="fill:#fff;stroke:#25aae1;stroke-miterlimit:10;stroke-width:2px"/></g><g id="c2278815-cf2d-44ed-8397-5adbc3e5cea8" data-name="&lt;Group&gt;"><rect id="bf0d87c7-70b7-4da8-b9ad-26e022e97ff8" data-name="&lt;Rectangle&gt;" x="95.81" y="100.59" width="51.82" height="27.55" style="fill:#fff;stroke:#25aae1;stroke-linecap:round;stroke-linejoin:round;stroke-width:2px"/><path id="42b90dec-47c5-4203-88a6-8c0a8196d511" data-name="&lt;Path&gt;" d="M144.35,108v12.73a3.86,3.86,0,0,0-3.86,3.8H102.94a3.85,3.85,0,0,0-3.85-3.8V108a3.85,3.85,0,0,0,3.85-3.86h37.55A3.86,3.86,0,0,0,144.35,108Z" style="fill:#fff;stroke:#25aae1;stroke-linecap:round;stroke-linejoin:round;stroke-width:2px"/><path id="21e098ea-2298-4924-9c8c-d7c3920c7f09" data-name="&lt;Path&gt;" d="M127.35,114.37a5.63,5.63,0,1,1-5.63-5.63A5.63,5.63,0,0,1,127.35,114.37Z" style="fill:#fff;stroke:#25aae1;stroke-linecap:round;stroke-linejoin:round;stroke-width:2px"/></g><g id="13fbd61e-6837-4cc0-8e57-25363523483a" data-name="&lt;Group&gt;"><g id="8d437614-f3cd-49dc-b227-87827b17a8e1" data-name="&lt;Group&gt;"><path id="dd577978-5187-487c-99c6-3e5397f87121" data-name="&lt;Path&gt;" d="M513.08,83.05V74.6A20.64,20.64,0,0,0,492.44,54h0A20.63,20.63,0,0,0,471.81,74.6v8.45h2.78V75a17.85,17.85,0,0,1,17.85-17.84h0A17.85,17.85,0,0,1,510.29,75v8.09Z" style="fill:#4ecdf4;stroke:#25aae1;stroke-linecap:round;stroke-linejoin:round;stroke-width:2px"/></g><path id="e2520ce5-d41d-4a92-a5c5-1cf22f5670ff" data-name="&lt;Path&gt;" d="M509.21,88.07a7.15,7.15,0,0,0,0-14.29Z" style="fill:#4ecdf4;stroke:#25aae1;stroke-linecap:round;stroke-linejoin:round;stroke-width:2px"/><path id="ba9a95a1-b556-42b8-a18b-0d9cc11dc907" data-name="&lt;Path&gt;" d="M475.67,88.07a7.15,7.15,0,0,1,0-14.29Z" style="fill:#4ecdf4;stroke:#25aae1;stroke-linecap:round;stroke-linejoin:round;stroke-width:2px"/><g id="4cf9fb3c-775e-4cb9-bf51-ea7c1e4d6035" data-name="&lt;Group&gt;"><circle id="dbfc887c-a6cf-4b0f-83f0-392c57d6fbac" data-name="&lt;Path&gt;" cx="492.44" cy="80.92" r="18.26" transform="translate(299.69 541.24) rotate(-76.61)" style="fill:#fff;stroke:#25aae1;stroke-linecap:round;stroke-linejoin:round;stroke-width:2px"/><path id="5a1edd90-d467-4dd9-844b-100f5835b421" data-name="&lt;Path&gt;" d="M492.44,62.66a18.27,18.27,0,0,0-18.18,16.59h21.1A5.16,5.16,0,0,0,500,76.34l.62-1.29,1.58,2.12a5.13,5.13,0,0,0,4.13,2.08h4.29A18.27,18.27,0,0,0,492.44,62.66Z" style="fill:#4ecdf4;stroke:#25aae1;stroke-linecap:round;stroke-linejoin:round;stroke-width:2px"/><g id="ceeeded4-681d-479d-98e1-ab37d5c1e488" data-name="&lt;Group&gt;"><path id="cff22751-3819-4f06-abbf-5a207b99ce47" data-name="&lt;Path&gt;" d="M498.88,86.35a3.3,3.3,0,0,1,6.6,0" style="fill:none;stroke:#25aae1;stroke-linecap:round;stroke-linejoin:round;stroke-width:2px"/><path id="a17cec0c-b2ff-42f9-a6fb-cf003c0728f4" data-name="&lt;Path&gt;" d="M479.4,86.35a3.3,3.3,0,0,1,6.6,0" style="fill:none;stroke:#25aae1;stroke-linecap:round;stroke-linejoin:round;stroke-width:2px"/></g><path id="246b4eb5-0611-4c09-9e5f-39f37bb750e3" data-name="&lt;Path&gt;" d="M483.82,92.74a14.54,14.54,0,0,0,17.24,0" style="fill:#fff;stroke:#ffd52f;stroke-linecap:round;stroke-linejoin:round;stroke-width:2px"/></g></g><g id="eddf1a86-9860-4d33-bf05-5a4d6da57575" data-name="&lt;Group&gt;"><g id="7e787c9f-5cbd-42fe-b69c-68fb2fb545f0" data-name="&lt;Group&gt;"><line id="5431a5d8-8fb0-4356-aafd-d9c4fa5e6be3" data-name="&lt;Path&gt;" x1="619.47" y1="105.23" x2="581.82" y2="105.23" style="fill:none;stroke:#25aae1;stroke-miterlimit:10;stroke-width:2px"/><line id="aedfbc5e-6861-4f27-9821-0b63a046ee8d" data-name="&lt;Path&gt;" x1="619.47" y1="113" x2="586.97" y2="113" style="fill:none;stroke:#25aae1;stroke-miterlimit:10;stroke-width:2px"/><line id="a51e4b04-18b9-41dd-adf1-ac8dc70ad055" data-name="&lt;Path&gt;" x1="619.47" y1="120.78" x2="594.11" y2="120.78" style="fill:none;stroke:#25aae1;stroke-miterlimit:10;stroke-width:2px"/></g><g id="580e8f26-d558-4a50-8976-2a16e113ae22" data-name="&lt;Group&gt;"><path id="02c78b1e-dbb7-4dbb-b8de-9bada367c749" data-name="&lt;Path&gt;" d="M657.37,120.78H618.28a3.59,3.59,0,0,1-3.57-3.22l-2.14-21.33a.34.34,0,0,1,.34-.37h49.83a.34.34,0,0,1,.34.37l-2.15,21.33A3.57,3.57,0,0,1,657.37,120.78Z" style="fill:#fff;stroke:#25aae1;stroke-linecap:round;stroke-linejoin:round;stroke-width:2px"/><rect id="0803e85c-af90-468a-a64a-75d8638b029e" data-name="&lt;Rectangle&gt;" x="608.95" y="92.62" width="57.74" height="4.8" rx="2.32" ry="2.32" style="fill:#4ecdf4;stroke:#25aae1;stroke-linecap:round;stroke-linejoin:round;stroke-width:2px"/><g id="c6301950-c0cc-49fe-affd-b43b8505eb83" data-name="&lt;Group&gt;"><path id="9e289ac9-4e5f-461f-8301-2f1958b551e1" data-name="&lt;Path&gt;" d="M619.47,114.37V102.62a2,2,0,0,1,2-2h0a2,2,0,0,1,2,2v11.75a2,2,0,0,1-2,2h0A2,2,0,0,1,619.47,114.37Z" style="fill:#fff;stroke:#25aae1;stroke-linecap:round;stroke-linejoin:round;stroke-width:2px"/><path id="520baaf1-63f4-4ab2-a7b0-d782f5be43aa" data-name="&lt;Path&gt;" d="M630.4,114.37V102.62a2,2,0,0,1,2-2h0a2,2,0,0,1,1.95,2v11.75a2,2,0,0,1-1.95,2h0A2,2,0,0,1,630.4,114.37Z" style="fill:#fff;stroke:#25aae1;stroke-linecap:round;stroke-linejoin:round;stroke-width:2px"/><path id="5d1f3cfd-518b-4779-939b-206ccf0a3f9e" data-name="&lt;Path&gt;" d="M641.33,114.37V102.62a2,2,0,0,1,2-2h0a2,2,0,0,1,2,2v11.75a2,2,0,0,1-2,2h0A2,2,0,0,1,641.33,114.37Z" style="fill:#fff;stroke:#25aae1;stroke-linecap:round;stroke-linejoin:round;stroke-width:2px"/><path id="9cffb1ec-0471-4c3a-9ceb-5db9cd0d2c7a" data-name="&lt;Path&gt;" d="M652.26,114.37V102.62a2,2,0,0,1,2-2h0a2,2,0,0,1,1.95,2v11.75a2,2,0,0,1-1.95,2h0A2,2,0,0,1,652.26,114.37Z" style="fill:#fff;stroke:#25aae1;stroke-linecap:round;stroke-linejoin:round;stroke-width:2px"/></g><g id="13281d8c-8224-498b-abab-7a78e595e3e8" data-name="&lt;Group&gt;"><rect id="b3d51abd-7dd3-4868-b432-216fbb06146e" data-name="&lt;Rectangle&gt;" x="630.76" y="83.26" width="23.94" height="4.4" rx="2.16" ry="2.16" transform="translate(395.38 -513.89) rotate(60)" style="fill:#fff;stroke:#25aae1;stroke-linecap:round;stroke-linejoin:round;stroke-width:2px"/><rect id="33f3d6cd-5bf6-4786-8070-ddab71352b14" data-name="&lt;Rectangle&gt;" x="620.94" y="83.26" width="23.94" height="4.4" rx="2.16" ry="2.16" transform="translate(1023.38 -419.92) rotate(120)" style="fill:#fff;stroke:#25aae1;stroke-linecap:round;stroke-linejoin:round;stroke-width:2px"/></g></g></g><g id="85839874-8dad-4e59-9255-83522846f387" data-name="&lt;Group&gt;"><circle id="4a785f31-fdbd-45a4-be73-baf7f7a05a5b" data-name="&lt;Path&gt;" cx="549.04" cy="114.36" r="15.85" style="fill:#fff;stroke:#25aae1;stroke-linecap:round;stroke-linejoin:round;stroke-width:2px"/><g id="132aaa81-a8ff-498d-890b-1a0935b12b0d" data-name="&lt;Group&gt;"><path id="6c69b393-a6ca-4061-88b4-641d69fcf660" data-name="&lt;Compound Path&gt;" d="M547.82,111.23c0,3-1.89,4.54-4,4.54s-3.89-1.62-3.89-4.3,1.56-4.48,4-4.48S547.82,108.79,547.82,111.23Zm-5.36.15c0,1.49.51,2.57,1.48,2.57s1.4-1,1.4-2.57c0-1.45-.39-2.57-1.43-2.57S542.46,110,542.46,111.38Zm1.59,10.36L552.23,107H554l-8.21,14.75Zm14.05-4.59c0,3-1.89,4.55-4,4.55s-3.86-1.63-3.88-4.31,1.56-4.47,4-4.47S558.1,114.72,558.1,117.15Zm-5.34.16c0,1.49.48,2.56,1.45,2.56s1.4-1,1.4-2.56-.37-2.57-1.4-2.57S552.76,115.88,552.76,117.31Z" style="fill:#25aae1"/></g></g><g id="c6f9ff40-efb5-4930-b0f4-79de0d8388e5" data-name="&lt;Group&gt;"><circle id="acb72409-8111-4bf5-a091-6849fbb2c217" data-name="&lt;Path&gt;" cx="39.7" cy="100.59" r="20" style="fill:#4ecdf4;stroke:#25aae1;stroke-linecap:round;stroke-linejoin:round;stroke-width:2px"/><circle id="a697a738-ccfa-4773-ad08-3293358b3afe" data-name="&lt;Path&gt;" cx="39.7" cy="100.59" r="15.62" style="fill:#fff;stroke:#25aae1;stroke-linecap:round;stroke-linejoin:round;stroke-width:2px"/><g id="c78f500b-bd7c-4a6f-94ec-f2d1b6ae68bd" data-name="&lt;Group&gt;"><line id="236aa5e0-bd25-4c7b-8a56-e6c52e3dfb81" data-name="&lt;Path&gt;" x1="39.7" y1="84.97" x2="39.7" y2="88.6" style="fill:none;stroke:#25aae1;stroke-miterlimit:10;stroke-width:2px"/><line id="9e2a647b-1d8e-4fdf-b3e6-b8074ba8176e" data-name="&lt;Path&gt;" x1="31.89" y1="87.06" x2="33.71" y2="90.21" style="fill:none;stroke:#25aae1;stroke-miterlimit:10;stroke-width:2px"/><line id="fcff727f-7d79-4ed8-a474-ee4e79b6a2fc" data-name="&lt;Path&gt;" x1="26.17" y1="92.78" x2="29.32" y2="94.6" style="fill:none;stroke:#25aae1;stroke-miterlimit:10;stroke-width:2px"/><line id="82e08459-498f-4ef3-8463-d5b65186a216" data-name="&lt;Path&gt;" x1="24.08" y1="100.59" x2="27.71" y2="100.59" style="fill:none;stroke:#25aae1;stroke-miterlimit:10;stroke-width:2px"/><line id="3c5d3f4f-33c7-42c9-b47e-b6dea904596e" data-name="&lt;Path&gt;" x1="26.17" y1="108.4" x2="29.32" y2="106.59" style="fill:none;stroke:#25aae1;stroke-miterlimit:10;stroke-width:2px"/><line id="aa539f47-f585-4ffa-b844-a7aff7eceb63" data-name="&lt;Path&gt;" x1="31.89" y1="114.12" x2="33.71" y2="110.98" style="fill:none;stroke:#25aae1;stroke-miterlimit:10;stroke-width:2px"/><line id="ec5fd065-aa29-4924-a77b-e7f1a43dd225" data-name="&lt;Path&gt;" x1="39.7" y1="116.22" x2="39.7" y2="112.58" style="fill:none;stroke:#25aae1;stroke-miterlimit:10;stroke-width:2px"/><line id="1713a555-7927-4313-adc5-a1b1ae6177b8" data-name="&lt;Path&gt;" x1="47.52" y1="114.12" x2="45.7" y2="110.98" style="fill:none;stroke:#25aae1;stroke-miterlimit:10;stroke-width:2px"/><line id="24fae445-b39d-444b-b80c-31f8a2b6e8da" data-name="&lt;Path&gt;" x1="53.24" y1="108.4" x2="50.09" y2="106.59" style="fill:none;stroke:#25aae1;stroke-miterlimit:10;stroke-width:2px"/><line id="74fad0e4-550e-4a5c-976f-35a27351ed96" data-name="&lt;Path&gt;" x1="55.33" y1="100.59" x2="51.7" y2="100.59" style="fill:none;stroke:#25aae1;stroke-miterlimit:10;stroke-width:2px"/><line id="67738eec-6268-446c-a1c7-f0e51a0210df" data-name="&lt;Path&gt;" x1="53.24" y1="92.78" x2="50.09" y2="94.6" style="fill:none;stroke:#25aae1;stroke-miterlimit:10;stroke-width:2px"/><line id="af2f820f-55fe-42bd-b3b9-2e767b0633b0" data-name="&lt;Path&gt;" x1="47.52" y1="87.06" x2="45.7" y2="90.21" style="fill:none;stroke:#25aae1;stroke-miterlimit:10;stroke-width:2px"/></g><g id="1c7b6dc8-3483-4a08-8833-62fffd192a23" data-name="&lt;Group&gt;"><line id="b7db5da5-cf28-44e6-a8d5-1aa512d92ca1" data-name="&lt;Path&gt;" x1="39.7" y1="100.59" x2="39.7" y2="90.91" style="fill:none;stroke:#25aae1;stroke-linecap:round;stroke-linejoin:round;stroke-width:2px"/><polyline id="e8684699-b3d6-4647-aeff-795d04101286" data-name="&lt;Path&gt;" points="41.93 93.69 39.7 90.62 37.48 93.69" style="fill:none;stroke:#25aae1;stroke-linecap:round;stroke-linejoin:round;stroke-width:2px"/></g><g id="cdd3a7b6-6a99-4314-8869-eab50b09ea78" data-name="&lt;Group&gt;"><line id="a5076c12-972c-4227-b504-8bafee72cf2a" data-name="&lt;Path&gt;" x1="39.7" y1="100.59" x2="47.29" y2="100.59" style="fill:none;stroke:#25aae1;stroke-linecap:round;stroke-linejoin:round;stroke-width:2px"/><polyline id="6c0479de-cd57-46b6-b67b-f57cc947e328" data-name="&lt;Path&gt;" points="44.54 98.36 47.61 100.59 44.54 102.82" style="fill:none;stroke:#25aae1;stroke-linecap:round;stroke-linejoin:round;stroke-width:2px"/></g></g><g id="12b4dfe5-1f72-4ed5-83f1-7cad1b089451" data-name="&lt;Group&gt;"><path id="827aa14b-0944-44fe-a229-5505e3d242ac" data-name="&lt;Path&gt;" d="M221,114.58c0,7.06-12.79,24.13-12.79,24.13s-12.79-17.07-12.79-24.13a12.79,12.79,0,0,1,25.58,0Z" style="fill:#fff;stroke:#25aae1;stroke-linecap:round;stroke-linejoin:round;stroke-width:2px"/><circle id="21999ec5-d97c-4471-9712-afab9d3eaf70" data-name="&lt;Path&gt;" cx="208.22" cy="114.58" r="6.21" style="fill:#4ecdf4;stroke:#25aae1;stroke-linecap:round;stroke-linejoin:round;stroke-width:2px"/></g><g id="6431a1eb-1d76-4545-8bc0-a0001447275b" data-name="&lt;Group&gt;"><path id="0b496890-eda1-4eb7-93f6-bcf2dca0847f" data-name="&lt;Path&gt;" d="M471.82,114.83H448.1A3.15,3.15,0,0,0,445,118v12.71a3.15,3.15,0,0,0,3.15,3.15H450a6.92,6.92,0,0,1-3.46,6,6.92,6.92,0,0,0,10.4-6h14.84a3.15,3.15,0,0,0,3.15-3.15V118A3.15,3.15,0,0,0,471.82,114.83Z" style="fill:#fff;stroke:#25aae1;stroke-linecap:round;stroke-linejoin:round;stroke-width:2px"/><line id="a30699e7-f012-412b-80aa-a1ef38f8fe62" data-name="&lt;Path&gt;" x1="449.09" y1="120.25" x2="470.83" y2="120.25" style="fill:none;stroke:#25aae1;stroke-linecap:round;stroke-linejoin:round;stroke-width:2px"/><line id="7e4aaf8b-5d2d-4b7c-bc80-dd7bd5922416" data-name="&lt;Path&gt;" x1="449.09" y1="124.6" x2="470.83" y2="124.6" style="fill:none;stroke:#25aae1;stroke-linecap:round;stroke-linejoin:round;stroke-width:2px"/><line id="2cf9b180-4cfb-4580-93db-a3d28914959d" data-name="&lt;Path&gt;" x1="449.09" y1="128.96" x2="470.83" y2="128.96" style="fill:none;stroke:#25aae1;stroke-linecap:round;stroke-linejoin:round;stroke-width:2px"/></g><g id="e81da342-5e90-4017-aef5-3a5aefba3864" data-name="&lt;Group&gt;"><line id="eefa6d99-e33e-4063-aad1-dbfc2e969e78" data-name="&lt;Path&gt;" x1="155.56" y1="60.16" x2="108.06" y2="60.16" style="fill:none;stroke:#25aae1;stroke-miterlimit:10;stroke-width:2px"/><line id="f494cff1-9daa-4a72-90e5-0ae6c97c9034" data-name="&lt;Path&gt;" x1="155.56" y1="67.93" x2="114.56" y2="67.93" style="fill:none;stroke:#25aae1;stroke-miterlimit:10;stroke-width:2px"/><line id="f3c1733c-3ae5-427a-8c7b-36d619bf11cb" data-name="&lt;Path&gt;" x1="155.56" y1="75.71" x2="123.56" y2="75.71" style="fill:none;stroke:#25aae1;stroke-miterlimit:10;stroke-width:2px"/></g><g id="f12deb78-d2f5-4371-a1df-4d7114ef4270" data-name="&lt;Group&gt;"><line id="dd35a2ba-fc8e-4873-857d-2f0f97128b67" data-name="&lt;Path&gt;" x1="53.14" y1="47.51" x2="5.64" y2="47.51" style="fill:none;stroke:#25aae1;stroke-miterlimit:10;stroke-width:2px"/><line id="006ef40d-1760-4b23-a73e-7af2dd0d5149" data-name="&lt;Path&gt;" x1="56.77" y1="55.28" x2="22.64" y2="55.28" style="fill:none;stroke:#25aae1;stroke-miterlimit:10;stroke-width:2px"/></g><g id="dc253731-73fe-4515-a6be-093885d79488" data-name="&lt;Group&gt;"><polyline id="f3b0a3ff-f837-4ab4-a114-ab5ed3619260" data-name="&lt;Path&gt;" points="103.94 27.81 182.05 27.36 182.05 48.46" style="fill:none;stroke:#25aae1;stroke-miterlimit:10;stroke-width:2px"/><polyline id="22edfdaa-4cdf-4e30-80b0-e343b25232b6" data-name="&lt;Path&gt;" points="177.51 42.96 182.05 49.2 186.59 42.96" style="fill:none;stroke:#25aae1;stroke-linecap:round;stroke-linejoin:round;stroke-width:2px"/></g><g id="a9a4eff9-3fff-4159-b736-67eb877523f5" data-name="&lt;Group&gt;"><line id="163f32c9-5016-423c-b2e9-6a9e1bcab295" data-name="&lt;Path&gt;" x1="209.71" y1="67.93" x2="243.56" y2="67.93" style="fill:none;stroke:#25aae1;stroke-miterlimit:10;stroke-width:2px"/><polyline id="9ecb8f18-92a2-4794-93ef-1d36bedbfbc7" data-name="&lt;Path&gt;" points="238.42 72.47 243.56 67.93 238.42 63.4" style="fill:none;stroke:#25aae1;stroke-linecap:round;stroke-linejoin:round;stroke-width:2px"/></g><g id="e33d5803-8490-46b4-a355-f2beb2775284" data-name="&lt;Group&gt;"><polyline id="d5355c28-a828-475b-81f6-d7fbfbac5dbc" data-name="&lt;Path&gt;" points="490.58 41.33 490.58 28.79 575.94 28.76" style="fill:none;stroke:#25aae1;stroke-miterlimit:10;stroke-width:2px"/></g><g id="cc217c7e-bb77-4b4c-9ad3-8f495ddac850" data-name="&lt;Group&gt;"><line id="06a46e30-9ba9-4d65-9e36-d13c12cf2ddb" data-name="&lt;Path&gt;" x1="155.4" y1="93.24" x2="161.41" y2="99.25" style="fill:none;stroke:#25aae1;stroke-miterlimit:10;stroke-width:2px"/><line id="ea2cf4c4-1b98-4390-86e8-50a11c325623" data-name="&lt;Path&gt;" x1="161.41" y1="93.24" x2="155.4" y2="99.25" style="fill:none;stroke:#25aae1;stroke-miterlimit:10;stroke-width:2px"/></g><g id="6efd0264-9c31-45c5-9344-fad1d5af94eb" data-name="&lt;Group&gt;"><line id="d1ac2cbb-796a-479d-a739-fa1263482959" data-name="&lt;Path&gt;" x1="227.23" y1="47.96" x2="233.24" y2="53.97" style="fill:none;stroke:#25aae1;stroke-miterlimit:10;stroke-width:2px"/><line id="564c07e6-3cac-4624-8d15-f043da303323" data-name="&lt;Path&gt;" x1="233.24" y1="47.96" x2="227.23" y2="53.97" style="fill:none;stroke:#25aae1;stroke-miterlimit:10;stroke-width:2px"/></g><g id="64c53a7b-ef5a-4a74-b058-aae483ba8f48" data-name="&lt;Group&gt;"><line id="84d2420e-7d54-441f-969b-5dd8803f2626" data-name="&lt;Path&gt;" x1="227.23" y1="132.93" x2="233.24" y2="138.94" style="fill:none;stroke:#25aae1;stroke-miterlimit:10;stroke-width:2px"/><line id="81e6cdc2-cb73-488a-8e9e-34fdabc21d5d" data-name="&lt;Path&gt;" x1="233.24" y1="132.93" x2="227.23" y2="138.94" style="fill:none;stroke:#25aae1;stroke-miterlimit:10;stroke-width:2px"/></g><g id="cd1468dd-3479-4891-975d-a4f70d3981a9" data-name="&lt;Group&gt;"><line id="9c71ead8-972e-4621-82c3-15206359f168" data-name="&lt;Path&gt;" x1="489.44" y1="111.36" x2="495.45" y2="117.37" style="fill:none;stroke:#25aae1;stroke-miterlimit:10;stroke-width:2px"/><line id="ac3ec24f-2f35-4a5c-bf40-0ce5a4b1fe0b" data-name="&lt;Path&gt;" x1="495.45" y1="111.36" x2="489.44" y2="117.37" style="fill:none;stroke:#25aae1;stroke-miterlimit:10;stroke-width:2px"/></g><circle id="d0305593-d531-468a-9b49-05a46d187774" data-name="&lt;Path&gt;" cx="192.32" cy="93.79" r="3.11" style="fill:none;stroke:#25aae1;stroke-miterlimit:10;stroke-width:2px"/><circle id="61b273f0-8202-411c-be13-626a0fd6a737" data-name="&lt;Path&gt;" cx="203.62" cy="44.6" r="3.11" style="fill:none;stroke:#25aae1;stroke-miterlimit:10;stroke-width:2px"/><circle id="37d7b2c9-3323-450b-a446-c720eec42460" data-name="&lt;Path&gt;" cx="50.24" cy="21.78" r="3.11" style="fill:none;stroke:#25aae1;stroke-miterlimit:10;stroke-width:2px"/><rect id="ce8d0492-bb72-4454-b944-d1bdf919bcf3" data-name="&lt;Rectangle&gt;" x="233.34" y="25.96" width="5.66" height="5.66" transform="translate(89.53 -158.57) rotate(45)" style="fill:none;stroke:#25aae1;stroke-linecap:round;stroke-linejoin:round;stroke-width:2px"/><rect id="aa36dcd3-2916-4831-9339-f67b366c1214" data-name="&lt;Rectangle&gt;" x="174.61" y="117.96" width="5.66" height="5.66" transform="translate(137.38 -90.09) rotate(45)" style="fill:none;stroke:#25aae1;stroke-linecap:round;stroke-linejoin:round;stroke-width:2px"/><g id="cc3f6fb5-e7c6-4c4a-baa1-4ed7b9a8435e" data-name="&lt;Group&gt;"><line id="b0b2cda0-5758-49d3-9421-8db93b74e5e3" data-name="&lt;Path&gt;" x1="471.17" y1="42.86" x2="477.19" y2="48.87" style="fill:none;stroke:#25aae1;stroke-miterlimit:10;stroke-width:2px"/><line id="77ecb6c2-df38-446a-b0bf-2b2a09950711" data-name="&lt;Path&gt;" x1="477.19" y1="42.86" x2="471.17" y2="48.87" style="fill:none;stroke:#25aae1;stroke-miterlimit:10;stroke-width:2px"/></g><g id="fa8e5712-9872-4ea2-b749-c977fd2fcb54" data-name="&lt;Group&gt;"><line id="4cc16e3c-805f-4cc5-b8fa-bfd4ac2f1eaa" data-name="&lt;Path&gt;" x1="532.58" y1="61.71" x2="538.59" y2="67.72" style="fill:none;stroke:#25aae1;stroke-miterlimit:10;stroke-width:2px"/><line id="128058d3-21c0-4e78-9b04-7adfae01fd04" data-name="&lt;Path&gt;" x1="538.59" y1="61.71" x2="532.58" y2="67.72" style="fill:none;stroke:#25aae1;stroke-miterlimit:10;stroke-width:2px"/></g><path id="20920ab9-8147-45a0-b6f0-b39cc3278ff0" data-name="&lt;Path&gt;" d="M515.89,48.87a3.11,3.11,0,1,1-3.11-3.11A3.11,3.11,0,0,1,515.89,48.87Z" style="fill:none;stroke:#25aae1;stroke-miterlimit:10;stroke-width:2px"/><path id="b80092c7-868f-4339-a3f8-4098e5d573e6" data-name="&lt;Path&gt;" d="M466.19,98.84a3.12,3.12,0,1,1-3.12-3.12A3.12,3.12,0,0,1,466.19,98.84Z" style="fill:none;stroke:#25aae1;stroke-miterlimit:10;stroke-width:2px"/><path id="f2dbfc05-ee4c-4380-856b-07bb20858e9b" data-name="&lt;Path&gt;" d="M512.78,136a3.11,3.11,0,1,1-3.11-3.11A3.11,3.11,0,0,1,512.78,136Z" style="fill:none;stroke:#25aae1;stroke-miterlimit:10;stroke-width:2px"/><path id="d4b48ff4-b726-4850-865f-1024c421c2e4" data-name="&lt;Path&gt;" d="M555.87,86.82a3.11,3.11,0,1,1-3.11-3.11A3.12,3.12,0,0,1,555.87,86.82Z" style="fill:none;stroke:#25aae1;stroke-miterlimit:10;stroke-width:2px"/><circle id="7e0e8755-ff76-4e4f-a408-f6f52bc53971" data-name="&lt;Path&gt;" cx="431.13" cy="19.65" r="3.11" style="fill:none;stroke:#25aae1;stroke-miterlimit:10;stroke-width:2px"/><rect id="7e13e81e-2345-479d-8145-984d8a5bb849" data-name="&lt;Rectangle&gt;" x="554.12" y="48.89" width="5.66" height="5.66" transform="translate(199.69 -378.67) rotate(45)" style="fill:none;stroke:#25aae1;stroke-linecap:round;stroke-linejoin:round;stroke-width:2px"/><rect id="26d0235c-77f1-45ce-be21-dd1889e90bab" data-name="&lt;Rectangle&gt;" x="513.06" y="103.04" width="5.66" height="5.66" transform="translate(225.96 -333.78) rotate(45)" style="fill:none;stroke:#25aae1;stroke-linecap:round;stroke-linejoin:round;stroke-width:2px"/><line id="36f3e429-d8c9-463c-b78c-0938fb6d8ce4" data-name="&lt;Path&gt;" x1="248.94" y1="124.56" x2="322.13" y2="124.56" style="fill:none;stroke:#25aae1;stroke-miterlimit:10;stroke-width:2px"/><line id="4a62baf8-a6e0-4203-9fe8-27fa9a7fd2f7" data-name="&lt;Path&gt;" x1="297.85" y1="132.93" x2="371.03" y2="132.93" style="fill:none;stroke:#25aae1;stroke-miterlimit:10;stroke-width:2px"/><line id="e1443f9d-b81e-44e3-afa3-13a5b8709c3e" data-name="&lt;Path&gt;" x1="346.75" y1="124.56" x2="419.94" y2="124.56" style="fill:none;stroke:#25aae1;stroke-miterlimit:10;stroke-width:2px"/><line id="4be5ef10-f68b-4f68-bbf2-35704a307103" data-name="&lt;Path&gt;" x1="203.62" y1="139.59" x2="169.31" y2="139.59" style="fill:none;stroke:#25aae1;stroke-miterlimit:10;stroke-width:2px"/><line id="faf543e4-17a2-406b-9a06-0eadb1cd8c04" data-name="&lt;Path&gt;" x1="200.07" y1="134.76" x2="151.24" y2="134.76" style="fill:none;stroke:#25aae1;stroke-miterlimit:10;stroke-width:2px"/><g id="6c1aaeeb-ab44-47cd-bff6-ee6d51fbef7a" data-name="&lt;Group&gt;"><g id="1cf734ee-27c5-4918-b3b1-86379c22be6c" data-name="&lt;Group&gt;"><line id="c593b141-3326-4947-bbc9-fa19e97154ef" data-name="&lt;Path&gt;" x1="191.13" y1="28.79" x2="193.63" y2="28.79" style="fill:none;stroke:#25aae1;stroke-miterlimit:10;stroke-width:2px"/><line id="74975184-8828-413b-a1dc-9bc8adb04f35" data-name="&lt;Path&gt;" x1="195.65" y1="28.79" x2="230.05" y2="28.79" style="fill:none;stroke:#25aae1;stroke-miterlimit:10;stroke-width:2px;stroke-dasharray:5.058499813079834,2.023400068283081"/><line id="64bf71a0-cd82-417d-b295-837381e6cdb6" data-name="&lt;Path&gt;" x1="231.06" y1="28.79" x2="233.56" y2="28.79" style="fill:none;stroke:#25aae1;stroke-miterlimit:10;stroke-width:2px"/></g></g><g id="5e973329-9abf-4119-bcce-c5423ec9e0ce" data-name="&lt;Group&gt;"><g id="922b8fde-8528-4a7e-9870-76c69bc60c9e" data-name="&lt;Group&gt;"><line id="4a551152-0e9f-46b0-8a68-17b4e627891e" data-name="&lt;Path&gt;" x1="427.87" y1="98.84" x2="430.37" y2="98.84" style="fill:none;stroke:#25aae1;stroke-miterlimit:10;stroke-width:2px"/><line id="8067e42c-a484-41bc-a932-2edab94de081" data-name="&lt;Path&gt;" x1="432.18" y1="98.84" x2="456.56" y2="98.84" style="fill:none;stroke:#25aae1;stroke-miterlimit:10;stroke-width:2px;stroke-dasharray:4.514699935913086,1.8058799505233765"/><line id="1095356d-c50a-4701-82ac-729584635945" data-name="&lt;Path&gt;" x1="457.46" y1="98.84" x2="459.96" y2="98.84" style="fill:none;stroke:#25aae1;stroke-miterlimit:10;stroke-width:2px"/></g></g><g id="a40f85ac-bce3-4566-9de0-5fa975e74f45" data-name="&lt;Group&gt;"><g id="ffc85908-1492-4076-9e11-fb534fa0de6a" data-name="&lt;Group&gt;"><line id="dc2b088b-8d9f-476d-87a5-f9bd943c69ba" data-name="&lt;Path&gt;" x1="264.32" y1="140.78" x2="266.82" y2="140.78" style="fill:none;stroke:#25aae1;stroke-miterlimit:10;stroke-width:2px"/><line id="1f0d1244-eb78-47b7-a9a5-fff56b1e144c" data-name="&lt;Path&gt;" x1="268.84" y1="140.78" x2="303.24" y2="140.78" style="fill:none;stroke:#25aae1;stroke-miterlimit:10;stroke-width:2px;stroke-dasharray:5.058499813079834,2.023400068283081"/><line id="d61bf922-f93f-4547-8d62-a83cd804d0e0" data-name="&lt;Path&gt;" x1="304.25" y1="140.78" x2="306.75" y2="140.78" style="fill:none;stroke:#25aae1;stroke-miterlimit:10;stroke-width:2px"/></g></g><g id="747f1c08-6b5c-4dd1-a100-2e544f104446" data-name="&lt;Group&gt;"><g id="684c8e55-af18-45ab-8b5a-8308ba9abe58" data-name="&lt;Group&gt;"><line id="f8a8a0a7-210c-48bf-9dbf-22ff8fcb9f04" data-name="&lt;Path&gt;" x1="362.13" y1="140.78" x2="364.63" y2="140.78" style="fill:none;stroke:#25aae1;stroke-miterlimit:10;stroke-width:2px"/><line id="b79de860-17f9-427a-96de-6b9094128501" data-name="&lt;Path&gt;" x1="366.65" y1="140.78" x2="401.05" y2="140.78" style="fill:none;stroke:#25aae1;stroke-miterlimit:10;stroke-width:2px;stroke-dasharray:5.058499813079834,2.023400068283081"/><line id="42289aa1-2367-4cb7-a6f2-fc0747992f7a" data-name="&lt;Path&gt;" x1="402.06" y1="140.78" x2="404.56" y2="140.78" style="fill:none;stroke:#25aae1;stroke-miterlimit:10;stroke-width:2px"/></g></g></g></g><polyline id="fc261ffd-175a-4ccf-a50d-3bce71fcfa29" data-name="&lt;Path&gt;" points="486.04 36.62 490.58 42.86 495.12 36.62" style="fill:none;stroke:#25aae1;stroke-linecap:round;stroke-linejoin:round;stroke-width:2px"/></g></svg>