<svg xmlns="http://www.w3.org/2000/svg" viewBox="0 0 199.43 159.21"><title>section1</title><g id="7dc007cb-2df9-44a9-a304-7db27525f15d" data-name="OBJECTS"><path d="M30.94,47.77s-16.25-6.7-15.15-10.14,8.5,2.06,8.88.06-12.28-8.35-11.3-12.36,6.1,3.57,9.25,3.41-8.41-9.31-7.1-13S22.16,17,22.16,17s-5.28-13.47.18-14,3.88,18,5.89,15.92,1.61-7.59,5.46-6.4S29.26,29.67,31.23,28s3.82-6.9,6.11-5-6,14-4.22,14,4.36-8.74,7.67-6.07S34.78,48.23,30.94,47.77Z" style="fill:#073a93"/><path d="M33.4,53.16A48.65,48.65,0,0,0,31.47,43c-.53-1.75-1.16-3.51-1.78-5.21-.28-.78-.56-1.55-.83-2.33A115.08,115.08,0,0,1,23,8.66l.21,0a114.76,114.76,0,0,0,5.87,26.78c.27.78.55,1.55.83,2.33.62,1.7,1.25,3.46,1.78,5.22a49.13,49.13,0,0,1,1.94,10.18Z" style="fill:#d2ebff"/><path d="M25.67,24.81a.07.07,0,0,1-.06,0A47.32,47.32,0,0,1,18.15,18a.11.11,0,0,1,0-.15.12.12,0,0,1,.15,0,47.29,47.29,0,0,0,7.42,6.79.11.11,0,0,1,0,.15A.1.1,0,0,1,25.67,24.81Z" style="fill:#d2ebff"/><path d="M26.85,28.73h0a.1.1,0,0,1-.07-.13,82.52,82.52,0,0,1,3.89-10.2,7.93,7.93,0,0,1,1.08-1.77.1.1,0,0,1,.15,0,.1.1,0,0,1,0,.14,7.92,7.92,0,0,0-1.05,1.73A83.66,83.66,0,0,0,27,28.65C26.94,28.7,26.9,28.72,26.85,28.73Z" style="fill:#d2ebff"/><path d="M28.87,35.2a.1.1,0,0,1-.1-.07.09.09,0,0,1,.07-.13,1.8,1.8,0,0,0,.77-.55,15.1,15.1,0,0,0,1.58-2.07l.27-.4c1.44-2.09,3.07-4.08,4.66-6a.11.11,0,0,1,.15,0,.1.1,0,0,1,0,.14c-1.58,1.92-3.22,3.9-4.65,6l-.27.4a16,16,0,0,1-1.6,2.1,2,2,0,0,1-.86.6Z" style="fill:#d2ebff"/><path d="M31.85,43.46h-.09a.1.1,0,0,1-.1-.11.11.11,0,0,1,.11-.1c.51,0,.93-.39,1.31-.86l6.67-8.18a.11.11,0,0,1,.15,0,.1.1,0,0,1,0,.14l-6.67,8.18A2,2,0,0,1,31.85,43.46Z" style="fill:#d2ebff"/><path d="M31.64,45.58s-14.54,3.09-15.42.17,6.91-2.63,6.22-4.21-12.56.05-13.79-3.21,6-.43,8.08-2S6.41,33.81,5.58,30.64s5.2-2.34,5.2-2.34S.66,21.44,4.22,18.47,15.52,29.13,16,26.75s-2.52-6.06.74-7.08,5.12,14.09,5.7,12-.64-6.64,1.85-6.45S26.79,37.85,28,37s-1.14-8.19,2.44-7.91S34.54,44.06,31.64,45.58Z" style="fill:#fff;stroke:#25aae1;stroke-linecap:round;stroke-linejoin:round;stroke-width:2px"/><path d="M35.93,48.16A40.86,40.86,0,0,0,29.74,42c-1.21-1-2.49-1.9-3.73-2.79-.57-.4-1.13-.81-1.69-1.22A97.07,97.07,0,0,1,7.38,22.11L7.51,22A97.42,97.42,0,0,0,24.42,37.86c.56.42,1.13.82,1.69,1.23,1.25.89,2.53,1.81,3.74,2.79a41.26,41.26,0,0,1,6.22,6.17Z" style="fill:#25aae1"/><path d="M17,32.09h-.05a39.75,39.75,0,0,1-8.47-1.19.09.09,0,1,1,0-.17,39.92,39.92,0,0,0,8.42,1.18A.11.11,0,0,1,17,32,.09.09,0,0,1,17,32.09Z" style="fill:#25aae1"/><path d="M19.68,34.25h0a.08.08,0,0,1-.11-.06,70.65,70.65,0,0,1-2.17-9,6.84,6.84,0,0,1-.09-1.76.09.09,0,0,1,.1-.07.09.09,0,0,1,.08.09,6.48,6.48,0,0,0,.09,1.71,70.32,70.32,0,0,0,2.16,9A.09.09,0,0,1,19.68,34.25Z" style="fill:#25aae1"/><path d="M24.12,37.75h0a35.6,35.6,0,0,1-6.64,1.07,45.62,45.62,0,0,1-5-.13.09.09,0,0,1-.08-.1.08.08,0,0,1,.09-.08,45.26,45.26,0,0,0,5,.13A35.06,35.06,0,0,0,24,37.59a.09.09,0,0,1,.11.07A.1.1,0,0,1,24.12,37.75Z" style="fill:#25aae1"/><path d="M24.18,37.8a.11.11,0,0,1-.11,0,.1.1,0,0,1,0-.13,1.49,1.49,0,0,0,.28-.75,13.46,13.46,0,0,0,.11-2.2v-.41c0-2.14.19-4.31.38-6.41a.09.09,0,0,1,.09-.08.08.08,0,0,1,.08.1c-.18,2.09-.38,4.26-.37,6.39v.41A13.94,13.94,0,0,1,24.52,37a1.77,1.77,0,0,1-.32.84Z" style="fill:#25aae1"/><path d="M30.1,42.26c-2.34,1.66-7.37,2.7-11,3.09a.09.09,0,1,1,0-.18c3.58-.38,8.58-1.42,10.88-3.06a.09.09,0,1,1,.11.15Z" style="fill:#25aae1"/><path d="M30.21,42.14l-.06,0a.09.09,0,0,1-.12,0,.08.08,0,0,1,0-.12,1.52,1.52,0,0,0,.5-1.23l.73-8.89a.11.11,0,0,1,.1-.09.09.09,0,0,1,.08.1l-.73,8.89A1.74,1.74,0,0,1,30.21,42.14Z" style="fill:#25aae1"/><path d="M172.17,101s17.11-4,16.57-7.59S180,94,180,92s13.46-6.28,13.13-10.4-6.6,2.55-9.68,1.89,9.79-7.85,9.09-11.66-6.75.13-6.75.13,7.36-12.45,2.06-13.83-6.7,17.1-8.37,14.77-.37-7.75-4.36-7.19,1.63,17.64-.05,15.69-2.67-7.42-5.23-6,3.64,14.8,1.94,14.49-2.92-9.33-6.61-7.22S168.3,100.79,172.17,101Z" style="fill:#073a93"/><path d="M168.88,105.88a49,49,0,0,1,3.52-9.69c.81-1.65,1.71-3.29,2.59-4.86.4-.72.8-1.44,1.19-2.17a115,115,0,0,0,10.1-25.55l-.21,0A114.37,114.37,0,0,1,176,89.06l-1.19,2.16c-.88,1.59-1.79,3.22-2.6,4.88a49.42,49.42,0,0,0-3.53,9.73Z" style="fill:#d2ebff"/><path d="M181,79.13h.06a47.77,47.77,0,0,0,8.46-5.54.11.11,0,1,0-.14-.16A46.86,46.86,0,0,1,181,78.93a.12.12,0,0,0,0,.15A.1.1,0,0,0,181,79.13Z" style="fill:#d2ebff"/><path d="M179.25,82.8s0,0,0,0a.1.1,0,0,0,.09-.12A83.51,83.51,0,0,0,177.16,72a8.07,8.07,0,0,0-.78-1.92.11.11,0,0,0-.15,0,.1.1,0,0,0,0,.14,7.9,7.9,0,0,1,.76,1.87,82.82,82.82,0,0,1,2.2,10.67A.1.1,0,0,0,179.25,82.8Z" style="fill:#d2ebff"/><path d="M176.22,88.87a.09.09,0,0,0,.11-.05.09.09,0,0,0-.05-.14,1.92,1.92,0,0,1-.67-.66,16,16,0,0,1-1.23-2.31c-.07-.14-.13-.29-.2-.43-1.08-2.3-2.38-4.52-3.64-6.67a.12.12,0,0,0-.15,0,.11.11,0,0,0,0,.15c1.25,2.14,2.55,4.36,3.63,6.65.07.14.13.29.2.43a16.44,16.44,0,0,0,1.25,2.34,2,2,0,0,0,.76.73Z" style="fill:#d2ebff"/><path d="M172,96.55l.09,0a.12.12,0,0,0,.12-.1.11.11,0,0,0-.1-.11c-.5,0-.85-.54-1.16-1.06l-5.27-9.14a.1.1,0,0,0-.18.1l5.27,9.14A2,2,0,0,0,172,96.55Z" style="fill:#d2ebff"/><path d="M155.28,105s13,9.07,15.07,6.56-5.7-5.44-4.36-6.71,12.31,5.26,14.87,2.56-5.68-2.89-7.09-5.36,11.16,1.85,13.3-.91-4.14-4.46-4.14-4.46,12.78-2.54,10.52-6.93S177.93,95.54,178.5,93s5-4.91,2.2-7.26-10.87,11.71-10.56,9.41,3.37-6.26.85-7.09-7.74,11.34-8.56,10,4.51-7.57.87-8.78S153.07,102.31,155.28,105Z" style="fill:#fff;stroke:#25aae1;stroke-linecap:round;stroke-linejoin:round;stroke-width:2px"/><path d="M150,105.76a44,44,0,0,1,8.62-3.47c1.59-.45,3.24-.82,4.82-1.19.73-.16,1.45-.32,2.17-.5A103.62,103.62,0,0,0,188.84,92l-.09-.16a103.66,103.66,0,0,1-23.18,8.57l-2.17.5c-1.59.36-3.23.74-4.83,1.19a44.15,44.15,0,0,0-8.66,3.48Z" style="fill:#25aae1"/><path d="M175.27,97.83a.08.08,0,0,0,0,0,43.38,43.38,0,0,0,8.81,2.34.1.1,0,0,0,0-.19,43,43,0,0,1-8.77-2.33.09.09,0,0,0-.12.06A.08.08,0,0,0,175.27,97.83Z" style="fill:#25aae1"/><path d="M171.73,98.84l0,0a.09.09,0,0,0,.13,0,75.66,75.66,0,0,0,5.85-7.92,7.71,7.71,0,0,0,.82-1.68.1.1,0,0,0-.19,0,7.3,7.3,0,0,1-.79,1.64,75.87,75.87,0,0,1-5.84,7.89A.11.11,0,0,0,171.73,98.84Z" style="fill:#25aae1"/><path d="M165.92,100.43l0,0a38.15,38.15,0,0,0,6.08,3.8,47.91,47.91,0,0,0,4.93,1.93A.09.09,0,1,0,177,106a47.51,47.51,0,0,1-4.91-1.92,39,39,0,0,1-6-3.78.09.09,0,0,0-.13,0A.09.09,0,0,0,165.92,100.43Z" style="fill:#25aae1"/><path d="M165.83,100.46a.11.11,0,0,0,.11,0,.09.09,0,0,0,.06-.12,1.64,1.64,0,0,1,0-.85,14.2,14.2,0,0,1,.8-2.21c.06-.13.12-.26.17-.4.89-2.1,1.6-4.31,2.29-6.45a.09.09,0,0,0-.18-.06c-.69,2.13-1.39,4.34-2.28,6.44-.06.13-.11.26-.17.4a14.25,14.25,0,0,0-.82,2.24,1.76,1.76,0,0,0,0,.94A0,0,0,0,0,165.83,100.46Z" style="fill:#25aae1"/><path d="M158.17,102.38c1.61,2.6,6.12,5.71,9.49,7.58a.09.09,0,0,0,.13,0,.1.1,0,0,0,0-.13c-3.35-1.86-7.83-4.94-9.41-7.51a.1.1,0,0,0-.13,0A.1.1,0,0,0,158.17,102.38Z" style="fill:#25aae1"/><path d="M158.11,102.22l0,.06a.09.09,0,0,0,.13,0,.09.09,0,0,0,0-.13,1.59,1.59,0,0,1,0-1.41l3-9a.09.09,0,1,0-.18-.06l-3,9A1.84,1.84,0,0,0,158.11,102.22Z" style="fill:#25aae1"/></g><g id="cdb57826-0048-408d-be5c-13ba799797e9" data-name="Layer 11"><ellipse cx="99.02" cy="139.59" rx="87.23" ry="5.7" style="fill:#d2ebff;opacity:0.56"/><path d="M170.71,34.16V139A1.75,1.75,0,0,1,169,140.7H25.57A1.75,1.75,0,0,1,23.82,139V34.16a1.75,1.75,0,0,1,1.75-1.76H169a1.73,1.73,0,0,1,1.41.72A1.71,1.71,0,0,1,170.71,34.16Z" style="fill:#4ecdf4;stroke:#25aae1;stroke-linecap:round;stroke-linejoin:round;stroke-width:2px"/><path d="M170,34.16V139c0,1-.79,1-1.76,1H25.57c-.45,0-.13-.17-.44-.45L169.64,33.84C169.85,34.14,170,33.77,170,34.16Z" style="fill:#4ecdf4"/><rect x="27.99" y="36.58" width="138.54" height="99.95" rx="1.94" ry="1.94" style="fill:#fff"/><path d="M167.59,37.79v6.74H26.94V37.79a2,2,0,0,1,2-1.94H165.62A2,2,0,0,1,167.59,37.79Z" style="fill:#4ecdf4"/><path d="M51.48,39.69h0a1.14,1.14,0,0,0,1.15,1.15h101a1.14,1.14,0,0,0,1.15-1.15h0a1.14,1.14,0,0,0-1.15-1.15h-101A1.14,1.14,0,0,0,51.48,39.69Z" style="fill:#fff"/><path d="M35.69,39.69v.85a.31.31,0,0,1-.47.28l-.74-.43L33.74,40a.33.33,0,0,1,0-.56l.74-.42.74-.43a.31.31,0,0,1,.47.28Z" style="fill:#25aae1"/><path d="M39.54,39.69v.85a.32.32,0,0,0,.48.28l.74-.43L41.5,40a.33.33,0,0,0,0-.56L40.76,39,40,38.56a.32.32,0,0,0-.48.28Z" style="fill:#25aae1"/><path d="M49.63,68.09l4.63-.29a3.65,3.65,0,0,0,.61,1.72,2.58,2.58,0,0,0,2.15,1A2.4,2.4,0,0,0,58.63,70a1.48,1.48,0,0,0,.57-1.14,1.43,1.43,0,0,0-.54-1.09,6.15,6.15,0,0,0-2.5-.92,10.77,10.77,0,0,1-4.57-1.91,3.88,3.88,0,0,1-1.37-3.05,4.11,4.11,0,0,1,.7-2.29A4.68,4.68,0,0,1,53,57.89a9.94,9.94,0,0,1,3.88-.62,7.89,7.89,0,0,1,4.6,1.13A4.82,4.82,0,0,1,63.41,62l-4.59.27a2.14,2.14,0,0,0-2.39-2,2,2,0,0,0-1.28.36,1.12,1.12,0,0,0-.43.87.88.88,0,0,0,.36.68,4,4,0,0,0,1.63.58,20.53,20.53,0,0,1,4.58,1.39,4.86,4.86,0,0,1,2,1.75,4.43,4.43,0,0,1,.63,2.33,5,5,0,0,1-.84,2.8,5.25,5.25,0,0,1-2.35,1.94,9.44,9.44,0,0,1-3.79.66c-2.68,0-4.54-.51-5.57-1.55A6.07,6.07,0,0,1,49.63,68.09Z" style="fill:#4ecdf4"/><path d="M66.37,57.54h13v3.37H71.25v2.5h7.58v3.22H71.25v3.1h8.41V73.3H66.37Z" style="fill:#4ecdf4"/><path d="M92,70.7H86.44l-.77,2.6h-5l5.93-15.76h5.31L97.86,73.3h-5.1Zm-1-3.41-1.74-5.66L87.5,67.29Z" style="fill:#4ecdf4"/><path d="M99.47,73.3V57.54h8.12a11.65,11.65,0,0,1,3.45.39A3.68,3.68,0,0,1,113,59.36a4.34,4.34,0,0,1,.73,2.56,4.2,4.2,0,0,1-2.1,3.8,5.92,5.92,0,0,1-1.71.63,3.29,3.29,0,0,1,2,1.41,5.7,5.7,0,0,1,.68,1L115,73.3h-5.5l-2.61-4.81a3.65,3.65,0,0,0-.88-1.22,2.06,2.06,0,0,0-1.19-.36h-.43V73.3Zm4.9-9.37h2a6.94,6.94,0,0,0,1.29-.22,1.28,1.28,0,0,0,.79-.49,1.44,1.44,0,0,0,.31-.92,1.42,1.42,0,0,0-.49-1.17,2.91,2.91,0,0,0-1.81-.41h-2.14Z" style="fill:#4ecdf4"/><path d="M126.64,66.85l4.26,1.29a7.68,7.68,0,0,1-1.35,3,5.92,5.92,0,0,1-2.3,1.82,8.53,8.53,0,0,1-3.49.61,10.21,10.21,0,0,1-4.19-.74,6.7,6.7,0,0,1-2.82-2.63,9,9,0,0,1-1.18-4.82,8.18,8.18,0,0,1,2.08-6,9.46,9.46,0,0,1,10.57-.89,7,7,0,0,1,2.53,3.69l-4.3,1a3.76,3.76,0,0,0-.47-1.05,2.84,2.84,0,0,0-1-.86,2.91,2.91,0,0,0-1.32-.3,2.85,2.85,0,0,0-2.54,1.33,5.59,5.59,0,0,0-.67,3.1,5.87,5.87,0,0,0,.8,3.59,3.13,3.13,0,0,0,4.35.19A4.94,4.94,0,0,0,126.64,66.85Z" style="fill:#4ecdf4"/><path d="M133.29,57.54h4.87v5.52h5.33V57.54h4.89V73.3h-4.89V66.93h-5.33V73.3h-4.87Z" style="fill:#4ecdf4"/><path d="M145.14,88.56h0a5,5,0,0,1-5,5H54a5,5,0,0,1-5-5h0a5,5,0,0,1,5-5h86.14A5,5,0,0,1,145.14,88.56Z" style="fill:#d2ebff"/><path d="M140.17,83.59H126.52v9.94h13.65a5,5,0,0,0,5-5h0A5,5,0,0,0,140.17,83.59Z" style="fill:#fbbe42"/><path d="M136.7,89.55a2.34,2.34,0,1,1,3.31-.14A2.34,2.34,0,0,1,136.7,89.55Zm2.65-2.88a1.57,1.57,0,1,0,.09,2.22A1.59,1.59,0,0,0,139.35,86.67Z" style="fill:#fff"/><path d="M134.11,92.35a.4.4,0,0,1,0-.55l2.59-2.8a.38.38,0,0,1,.56.52l-2.58,2.8A.39.39,0,0,1,134.11,92.35Z" style="fill:#fff"/><path d="M49.12,105.25h0a1.53,1.53,0,0,0,1.53,1.54h92.77a1.54,1.54,0,0,0,1.54-1.54h0a1.53,1.53,0,0,0-1.54-1.53H50.65A1.52,1.52,0,0,0,49.12,105.25Z" style="fill:#d2ebff"/><path d="M49.12,112.8h0a1.52,1.52,0,0,0,1.53,1.53h92.77A1.53,1.53,0,0,0,145,112.8h0a1.54,1.54,0,0,0-1.54-1.54H50.65A1.53,1.53,0,0,0,49.12,112.8Z" style="fill:#d2ebff"/><path d="M49.12,120.34h0a1.53,1.53,0,0,0,1.53,1.54h92.77a1.54,1.54,0,0,0,1.54-1.54h0a1.53,1.53,0,0,0-1.54-1.53H50.65A1.52,1.52,0,0,0,49.12,120.34Z" style="fill:#d2ebff"/><path d="M46.84,103.5l.42-2.12-2-.39A4.92,4.92,0,0,0,45,99.43l1.64-1.1-1.2-1.8-1.57,1.06a4.87,4.87,0,0,0-1.62-1.09l.39-2-2.12-.42-.4,2.06a4.53,4.53,0,0,0-1.3.25l-1.1-1.64L35.92,96,37,97.54a4.57,4.57,0,0,0-1.08,1.61l-1.75-.34-.41,2.12,1.8.35a4.72,4.72,0,0,0,.38,1.64L34.35,104l1.21,1.8,1.64-1.11a4.85,4.85,0,0,0,1.58.92l-.39,2,2.12.41.43-2.17a4.85,4.85,0,0,0,1.38-.36l1,1.57,1.8-1.21-1.1-1.64a5,5,0,0,0,.72-1.1Zm-5.34-.85A2,2,0,1,1,42,99.9,2,2,0,0,1,41.5,102.65Z" style="fill:#e8e8f9"/><path d="M158.18,57.75l.23-1.16-1.09-.21a2.75,2.75,0,0,0-.14-.85l.89-.6-.66-1-.86.58a2.48,2.48,0,0,0-.88-.59l.22-1.09-1.16-.23-.22,1.12a2.88,2.88,0,0,0-.71.14l-.6-.89-1,.66.58.85a2.67,2.67,0,0,0-.59.88l-.95-.18L151,56.35l1,.19a2.81,2.81,0,0,0,.21.9l-.86.57.66,1,.9-.61a2.56,2.56,0,0,0,.87.51L153.56,60l1.16.23L155,59a2.61,2.61,0,0,0,.75-.2l.57.86,1-.66-.61-.89a2.67,2.67,0,0,0,.4-.61Zm-2.92-.46a1.08,1.08,0,0,1-1.21-1.8,1.08,1.08,0,1,1,1.21,1.8Z" style="fill:#e8e8f9"/><path d="M41.88,69.66l.23-1.16L41,68.28a2.54,2.54,0,0,0-.15-.85l.9-.6-.66-1-.86.57a2.78,2.78,0,0,0-.88-.59l.22-1.09-1.17-.22-.22,1.12a2.49,2.49,0,0,0-.7.14l-.6-.9-1,.66.58.86a2.48,2.48,0,0,0-.59.88L35,67.09l-.23,1.16,1,.2a2.82,2.82,0,0,0,.21.89l-.86.58.66,1,.9-.6a2.7,2.7,0,0,0,.87.5l-.22,1.1,1.16.22.23-1.18a2.94,2.94,0,0,0,.76-.2l.57.86,1-.66-.61-.9a3,3,0,0,0,.4-.6ZM39,69.19a1.08,1.08,0,0,1-1.5-.29,1.08,1.08,0,1,1,1.5.29Z" style="fill:#e8e8f9"/><path d="M47.94,152.25c0,1.57-9.57,2.85-21.36,2.85s-21.36-1.28-21.36-2.85,9.56-2.85,21.36-2.85S47.94,150.68,47.94,152.25Z" style="fill:#d2ebff;opacity:0.56"/><path d="M32.69,82.19a13.73,13.73,0,0,0,8.49,9.2A19.5,19.5,0,0,0,47,89.17a17.74,17.74,0,0,1-1-3.85c-2.4.67-4.47,1-4.47,1C36.53,84,33.46,72.76,33.46,72.76,30.45,75.62,32.69,82.19,32.69,82.19Z" style="fill:#1677d8"/><path d="M15.65,140l-2.14,2.86a4.58,4.58,0,0,0,2,2.27l2.56-3.3Z" style="fill:#fba691"/><path d="M15.13,144.24s1-.21,1.35.13,1.2,5.07,2,6.1,0,1.58-.51,1.79-7.6-6.89-7.6-6.89a15.55,15.55,0,0,1,2.61-2.9C13.83,142,14.23,143.74,15.13,144.24Z" style="fill:#1858b5"/><path d="M15.26,147a.22.22,0,0,1-.1-.11.18.18,0,0,1,.1-.24,2.74,2.74,0,0,1,1.35-.23,1.26,1.26,0,0,1,1,.85.19.19,0,0,1-.12.23.19.19,0,0,1-.23-.13.86.86,0,0,0-.7-.58,2.41,2.41,0,0,0-1.14.2A.23.23,0,0,1,15.26,147Z" style="fill:#fff"/><path d="M15.15,146.24a.18.18,0,0,1-.11-.1.2.2,0,0,1,.1-.25,2.78,2.78,0,0,1,1.35-.22,1.22,1.22,0,0,1,1,.84.18.18,0,0,1-.35.11.86.86,0,0,0-.7-.58,2.32,2.32,0,0,0-1.14.2A.15.15,0,0,1,15.15,146.24Z" style="fill:#fff"/><path d="M15.59,147.79a.19.19,0,0,1-.1-.1.19.19,0,0,1,.1-.25,2.78,2.78,0,0,1,1.35-.22,1.24,1.24,0,0,1,1,.84.19.19,0,0,1-.13.23.18.18,0,0,1-.22-.12.92.92,0,0,0-.7-.59,2.37,2.37,0,0,0-1.14.21A.17.17,0,0,1,15.59,147.79Z" style="fill:#fff"/><path d="M28.8,144.92l.32,3.56a4.62,4.62,0,0,0,3,.37l-.3-4.17Z" style="fill:#fba691"/><path d="M31.46,148.34s.63-.86,1.14-.83,4.47,3.08,5.81,3.32,1.1,1.23.86,1.74-10.65.22-10.65.22-.39-3.37-.06-4.32S30.41,148.58,31.46,148.34Z" style="fill:#1858b5"/><path d="M34,150.61a.14.14,0,0,1-.14,0,.19.19,0,0,1-.09-.25,2.83,2.83,0,0,1,.9-1,1.23,1.23,0,0,1,1.29,0,.19.19,0,0,1,.06.26.19.19,0,0,1-.26,0,.9.9,0,0,0-.91,0,2.43,2.43,0,0,0-.75.89A.16.16,0,0,1,34,150.61Z" style="fill:#fff"/><path d="M33.47,150.11a.26.26,0,0,1-.15,0,.19.19,0,0,1-.08-.25,2.83,2.83,0,0,1,.9-1,1.23,1.23,0,0,1,1.29,0,.18.18,0,0,1,0,.26.19.19,0,0,1-.25,0,.88.88,0,0,0-.91,0,2.25,2.25,0,0,0-.75.88A.22.22,0,0,1,33.47,150.11Z" style="fill:#fff"/><path d="M34.8,151a.2.2,0,0,1-.15,0,.19.19,0,0,1-.08-.25,2.83,2.83,0,0,1,.9-1,1.23,1.23,0,0,1,1.29,0,.18.18,0,0,1,.05.26.17.17,0,0,1-.25,0,.9.9,0,0,0-.91,0,2.33,2.33,0,0,0-.75.89A.22.22,0,0,1,34.8,151Z" style="fill:#fff"/><path d="M26.8,106.23l-2.17,17.91a60.5,60.5,0,0,0-3.79,6c-1.55,2.83-5.69,10.17-5.69,10.17l2.5,1.91L31.37,128l3.65-22Z" style="fill:#053272"/><path d="M18.27,142.19a2.81,2.81,0,0,1-1.14,1.27L14.22,141a4.53,4.53,0,0,1,1-1.34Z" style="fill:#073a93"/><path d="M15.72,107a107.19,107.19,0,0,0,8.88,16.9s.75,7.2,2,11c.56,1.68,1.64,9.64,1.64,9.64l3.81-.17-1-22.13-4-16Z" style="fill:#073a93"/><path d="M32.45,144.25a3.23,3.23,0,0,1,0,2l-4.41.13a5.06,5.06,0,0,1-.18-1.93Z" style="fill:#053272"/><path d="M33.46,72.76c.58.72,1.73,8,1.91,15.43,0,.17,0,.34,0,.51,0,.78,0,1.57,0,2.36s0,1.55,0,2.32c0,1.26,0,2.5.06,3.7v.4c0,1.17,0,2.29,0,3.33v.41c0,1.56,0,3,0,4.06h0v.45c0,.78,0,1.4,0,1.82a39.66,39.66,0,0,1-5.53,1.07l-.15,0-.24,0H29.6l-1,.09a36,36,0,0,1-4.76.08l-.41,0-.38,0h-.17l-.31,0a37.94,37.94,0,0,1-7-1.22c0-.92,0-2.79,0-5.2V102c0-2.66,0-5.92,0-9.28,0-.27,0-.53,0-.8s0-.62,0-.93v-.16a1.7,1.7,0,0,1,0-.22v-.43c0-.22,0-.43,0-.64s0-.32,0-.48c0-.32,0-.64,0-1,.11-6.67.34-12.8.77-14.36a1.1,1.1,0,0,1,.12-.31,2.65,2.65,0,0,1,.17-.22l.27-.28a20.91,20.91,0,0,1,3.21-2.14l.44-.25,3.44-1.17,3.55.25S32.62,71.71,33.46,72.76Z" style="fill:#489bff"/><path d="M19.14,82.37a.18.18,0,0,0-.33-.11A18.49,18.49,0,0,0,16,87.81c-.13.41-.25.81-.34,1.2,0,.16,0,.32,0,.48s0,.42,0,.64v.43a1.7,1.7,0,0,0,0,.22v.16a22.46,22.46,0,0,1,.72-3,17.87,17.87,0,0,1,2.74-5.43.2.2,0,0,0,0-.11Z" style="fill:#1677d8"/><path d="M19.87,101.73h0A16.37,16.37,0,0,0,29,98.51a21.25,21.25,0,0,0,3.61-3.19.19.19,0,0,0,0-.26.18.18,0,0,0-.26,0,20,20,0,0,1-3.54,3.14,16.08,16.08,0,0,1-9,3.15.18.18,0,0,0-.18.18A.18.18,0,0,0,19.87,101.73Z" style="fill:#1677d8"/><path d="M23.86,103a15.54,15.54,0,0,0,6.79-2,.18.18,0,0,0,.07-.25.17.17,0,0,0-.25-.06s-3.94,2.25-7.4,1.89a.18.18,0,0,0-.21.16.19.19,0,0,0,.17.2A7.55,7.55,0,0,0,23.86,103Z" style="fill:#1677d8"/><path d="M22.91,75.4a15.53,15.53,0,0,0,6-3.73.18.18,0,1,0-.26-.26s-3.2,3.22-6.63,3.8a.2.2,0,0,0-.15.22.19.19,0,0,0,.21.15C22.37,75.53,22.64,75.47,22.91,75.4Z" style="fill:#1677d8"/><path d="M20.22,60.44c0,3.24,2,5.47,5.24,5.47A5.37,5.37,0,0,0,31,60.27c0-3.24-1.92-5.7-5.16-5.7C21.91,54.57,20.22,57.2,20.22,60.44Z" style="fill:#2e3062"/><path d="M20.3,61.3s-1.13-1.72-.53-3,.3-1.06.45-2.09a1.92,1.92,0,0,1,1.8-1.6c.9-.14.28-1.17,1.52-1.54s2.24.92,3,.34,2.75-.86,3.3,0a1.49,1.49,0,0,0,1.63.83,1.39,1.39,0,0,1,1,2.11c-.63,1-1.71.62-1.56,1.32s1.06,1.95-.16,3.54C30.43,61.64,20.3,61.3,20.3,61.3Z" style="fill:#2e3062"/><path d="M21,61.83s-.9-1.2-1.57-.21.28,3.93,1.92,3.21Z" style="fill:#fb876b"/><path d="M20.94,63.93a.14.14,0,0,1-.13-.1,2.14,2.14,0,0,0-1.2-1.28.14.14,0,0,1-.08-.18.13.13,0,0,1,.18-.08,2.4,2.4,0,0,1,1.36,1.46.13.13,0,0,1-.09.17Z" style="fill:#d45c48"/><path d="M20,63.47l-.07,0a.14.14,0,0,1,0-.19,1.23,1.23,0,0,1,.52-.42.14.14,0,0,1,.11.25,1,1,0,0,0-.4.32A.14.14,0,0,1,20,63.47Z" style="fill:#d45c48"/><path d="M30.23,61.83s.9-1.2,1.57-.21-.28,3.93-1.92,3.21Z" style="fill:#fb876b"/><path d="M30.24,63.93a.13.13,0,0,0,.13-.1,2.14,2.14,0,0,1,1.21-1.28.15.15,0,0,0,.08-.18.14.14,0,0,0-.18-.08,2.38,2.38,0,0,0-1.37,1.46.14.14,0,0,0,.09.17Z" style="fill:#d45c48"/><path d="M31.19,63.47l.07,0a.13.13,0,0,0,0-.19,1.15,1.15,0,0,0-.52-.42.14.14,0,0,0-.11.25,1,1,0,0,1,.4.32A.14.14,0,0,0,31.19,63.47Z" style="fill:#d45c48"/><path d="M27.81,67.32V70.4a2.15,2.15,0,0,1-1.45.84C25,71.4,23.54,70,23.54,70V67.52Z" style="fill:#fba691"/><path d="M27.81,67.32v1.29c-.79.88-2.19,1.1-4.27.79V67.52Z" style="fill:#fb876b"/><path d="M20.47,61.78c0,.17,0,.34.05.51,0,.43.1.88.18,1.32a.07.07,0,0,0,0,0c.39,2.15,1.27,4.26,3.17,4.94,4.29,1.53,5.83-2.15,6.44-4.3a7.14,7.14,0,0,0,.18-.79v0c.06-.32.11-.66.15-1s.07-.52.09-.78c.06-.64.1-1.29.13-1.86a3,3,0,0,0-1.94-3,8.07,8.07,0,0,0-7,.22,3,3,0,0,0-1.55,2.59C20.41,60.26,20.42,61,20.47,61.78Z" style="fill:#fba691"/><path d="M20.47,61.78c0,.17,0,.34.05.51,0,.43.1.88.18,1.32a.07.07,0,0,0,0,0c.39,2.15,1.27,4.26,3.17,4.94,4.29,1.53,5.83-2.15,6.44-4.3a7.14,7.14,0,0,0,.18-.79v0c.06-.32.11-.66.15-1s.07-.52.09-.78l-.64.17a13.59,13.59,0,0,1-.82,3c-.57-1.38-3.7-.24-3.7-.24s-2.79-1-3.74,0a25.91,25.91,0,0,1-.85-2.8Zm5,3.4c2.26-.31,2.82.26,2.92.93a4,4,0,0,1-1.92,1.16A4.48,4.48,0,0,1,23,66.52C22.9,66,22.77,64.49,25.5,65.18Z" style="fill:#2e3062"/><path d="M24.13,62c0,.31-.16.57-.36.57s-.36-.26-.36-.57.16-.56.36-.56S24.13,61.69,24.13,62Z" style="fill:#2e3062"/><path d="M28.29,62c0,.31-.16.57-.36.57s-.36-.26-.36-.57.16-.56.36-.56S28.29,61.69,28.29,62Z" style="fill:#2e3062"/><path d="M28.94,60.07a3,3,0,0,0-2-.07l.09.48a5.66,5.66,0,0,1,1.92.16A.8.8,0,0,0,28.94,60.07Z" style="fill:#2e3062"/><path d="M22.36,60.07a3,3,0,0,1,2-.07l-.09.48a5.66,5.66,0,0,0-1.92.16A.8.8,0,0,1,22.36,60.07Z" style="fill:#2e3062"/><path d="M25.73,64.45a1.68,1.68,0,0,1-.51,0,.13.13,0,1,1,.07-.26.89.89,0,0,0,.56,0s.06-.05,0-.14a19.28,19.28,0,0,0-.34-2.09.16.16,0,0,1,.11-.17.14.14,0,0,1,.16.11A19.21,19.21,0,0,1,26.18,64a.42.42,0,0,1-.16.36A.68.68,0,0,1,25.73,64.45Z" style="fill:#fb876b"/><path d="M23.84,65.28a1.78,1.78,0,0,0,1.76,1.61,1.7,1.7,0,0,0,1.74-1.61Z" style="fill:#fff"/><path d="M30.73,61.86h-.62a4.53,4.53,0,0,0-.35-1.9c-.43-1.15.48-1.66-.26-2.24s-2.57-.33-3.85-.37a26.79,26.79,0,0,0-3.85.1c-.51.11-.23.94-.05,1.59s-.61,1.36-.75,2a3.43,3.43,0,0,0,0,.79h-.52c-.06-.82-.07-1.58-.06-2.19A3,3,0,0,1,22,57.08a8.1,8.1,0,0,1,7-.22,3,3,0,0,1,1.94,3C30.85,60.45,30.81,61.16,30.73,61.86Z" style="fill:#2e3062"/><path d="M26.27,62.28a1.65,1.65,0,1,1,1.65,1.65A1.65,1.65,0,0,1,26.27,62.28Zm.26,0a1.4,1.4,0,1,0,1.39-1.39A1.4,1.4,0,0,0,26.53,62.28Z" style="fill:#fff"/><path d="M21.76,62.28a1.65,1.65,0,1,1,1.65,1.65A1.65,1.65,0,0,1,21.76,62.28Zm.26,0a1.4,1.4,0,1,0,1.39-1.39A1.4,1.4,0,0,0,22,62.28Z" style="fill:#fff"/><path d="M29.3,61.75a.12.12,0,0,0,.09,0h0a2,2,0,0,1,1.74-.5.13.13,0,0,0,.15-.1.12.12,0,0,0-.09-.15,2.26,2.26,0,0,0-2,.57.12.12,0,0,0,0,.18A.13.13,0,0,0,29.3,61.75Z" style="fill:#fff"/><path d="M22,61.75a.13.13,0,0,0,.11-.06.13.13,0,0,0,0-.18,3.77,3.77,0,0,0-2.21-.62.13.13,0,0,0-.1.15.12.12,0,0,0,.14.11,3.51,3.51,0,0,1,2,.58Z" style="fill:#fff"/><path d="M25,61.91a1.08,1.08,0,0,1,.71-.42,1,1,0,0,1,.68.42l.22-.14a1.23,1.23,0,0,0-.9-.53,1.26,1.26,0,0,0-.91.52Z" style="fill:#fff"/><path d="M41.25,90.5l3.67,2.82a1.06,1.06,0,0,0,1.49-.19l7.14-9.31,3-3.85-5.36-4.11L49.4,78.14,41.05,89A1,1,0,0,0,41.25,90.5Z" style="fill:#fbbe42"/><path d="M49.4,78.14a14.58,14.58,0,0,0,4.15,5.68l3-3.85-5.36-4.11Z" style="fill:#f8ae00"/><path d="M36.56,89.76h.38a1.91,1.91,0,0,1,1.91,1.91v18.92a0,0,0,0,1,0,0H34.65a0,0,0,0,1,0,0V91.67A1.91,1.91,0,0,1,36.56,89.76Z" transform="translate(4.94 202.03) rotate(-142.51)" style="fill:#073a93"/><path d="M49.23,52.71a19,19,0,1,0,26.64-3.38A19,19,0,0,0,49.23,52.71Zm2.3,1.78a16.08,16.08,0,1,1,2.85,22.56A16.09,16.09,0,0,1,51.53,54.49Z" style="fill:#25aae1"/><path d="M48.7,60.19A16.1,16.1,0,0,0,60.08,79.87a15.67,15.67,0,0,0,2.21.43,16.08,16.08,0,0,0,5.59-.3,16.32,16.32,0,0,0,5.24-2.27,16.11,16.11,0,0,0,5.82-6.88,16.45,16.45,0,0,0,.83-2.36A16.1,16.1,0,0,0,68.39,48.81a16.36,16.36,0,0,0-2.46-.46A16.07,16.07,0,0,0,57.06,50a16,16,0,0,0-7.63,8.1A16.69,16.69,0,0,0,48.7,60.19Z" style="fill:#fff;opacity:0.4"/><path d="M57.06,50,73.12,77.73a16.11,16.11,0,0,0,5.82-6.88l-13-22.5A16.07,16.07,0,0,0,57.06,50Z" style="fill:#fff;opacity:0.4"/><path d="M49.43,58.06,62.29,80.3a16.08,16.08,0,0,0,5.59-.3L52.48,53.37A16.15,16.15,0,0,0,49.43,58.06Z" style="fill:#fff;opacity:0.4"/><path d="M33.43,98.51h.65a1.42,1.42,0,0,0,1.28-.85,6.54,6.54,0,0,1,.38-.79,3.47,3.47,0,0,1,1.43-1.1c.31,0,.26.55,0,.8a5.44,5.44,0,0,0-.75.93c-.19.36,1.51,1.08,2.2,1.25s1.9-.2,2,.37-.79.65-.79.65.26.52-.49,1a.7.7,0,0,1-.35.77.79.79,0,0,1-.51.81c-.57.16-2.33.68-5.79-1.43Z" style="fill:#fba691"/><path d="M21.56,83.82a30.73,30.73,0,0,0,2.59,7.12,18.11,18.11,0,0,0,4.48,4.36,58.89,58.89,0,0,0,5.45,3.21,3.83,3.83,0,0,0-.76,2.7c-7,0-13.11-6.63-13.11-6.63-4.89-8.51-5.21-15.45-5.13-18a4.78,4.78,0,0,1,.77-2.51,2.55,2.55,0,0,1,.94-.91,5.09,5.09,0,0,1,2.83,3.24C20.35,78.89,21.56,83.82,21.56,83.82Z" style="fill:#1677d8"/><path d="M53.23,84.64A4.48,4.48,0,0,0,51,84.39c-.72.3,1.26,1.37,1.26,1.37s-2.4-1.28-2.81-.76,1.88,1.82,1.88,1.82-1.76-.62-2.12-.25S50.46,88,50.46,88s-1.45-.34-1.75-.1,1,1.27,1.79,1.55,1-.88,1-.88.76-.67.66-1.13c0,0,.79-.54.85-1.09C53,86.3,54.07,85.32,53.23,84.64Z" style="fill:#fba691"/><path d="M93.72,152.25c0,1.57-8.8,2.85-19.65,2.85s-19.64-1.28-19.64-2.85,8.79-2.85,19.64-2.85S93.72,150.68,93.72,152.25Z" style="fill:#d2ebff;opacity:0.56"/><path d="M59.43,146.39A10.57,10.57,0,1,1,70,135.83,10.58,10.58,0,0,1,59.43,146.39Zm0-16.92a6.36,6.36,0,1,0,6.36,6.36A6.36,6.36,0,0,0,59.43,129.47Z" style="fill:#accfe5"/><path d="M88.71,152.14V118.75c0-4-29.28-4-29.28,0v33.39C59.43,154.7,88.71,154.7,88.71,152.14Z" style="fill:#d2ebff"/><path d="M87.24,118.33c0,1-5.9,1.72-13.17,1.72s-13.17-.77-13.17-1.72,5.9-1.71,13.17-1.71S87.24,117.39,87.24,118.33Z" style="fill:#accfe5"/><rect x="4.47" y="61.73" width="10.05" height="10.05" rx="4.57" ry="4.57" style="fill:#fbbe42"/><path d="M8.93,67.29A2.17,2.17,0,1,1,12,67.16,2.17,2.17,0,0,1,8.93,67.29Zm2.45-2.66a1.45,1.45,0,1,0,.09,2.05A1.45,1.45,0,0,0,11.38,64.63Z" style="fill:#fff"/><path d="M6.54,69.88a.37.37,0,0,1,0-.51l2.39-2.59a.36.36,0,1,1,.53.49L7.05,69.86A.37.37,0,0,1,6.54,69.88Z" style="fill:#fff"/><rect x="106.84" y="17.46" width="48.93" height="10.61" rx="4.82" ry="4.82" style="fill:#fff;stroke:#25aae1;stroke-linecap:round;stroke-linejoin:round;stroke-width:2px"/><path d="M150.54,19.62a3.15,3.15,0,1,0,3.15,3.15A3.16,3.16,0,0,0,150.54,19.62Zm.12,4.31v-1.1h1.43a4.29,4.29,0,0,1-.17,1.1Zm.9,1.26a3.72,3.72,0,0,0,.55-1h1a2.91,2.91,0,0,1-1.89,1.41A3.76,3.76,0,0,0,151.56,25.19Zm.28-1a3.16,3.16,0,0,1-.48.84,2.74,2.74,0,0,1-.7.64V24.19Zm-1.18-3V19.87h.12a4,4,0,0,1,1,1.34Zm1.38,0a3.91,3.91,0,0,0-.42-.78,4.74,4.74,0,0,0-.4-.49A2.91,2.91,0,0,1,153,21.22Zm-1.38,1.35v-1.1h1.21a3.84,3.84,0,0,1,.22,1.1Zm1.68,0a3.81,3.81,0,0,0-.2-1.1h1a3.06,3.06,0,0,1,.3,1.1Zm1.1.26a2.8,2.8,0,0,1-.25,1.1h-1a4.79,4.79,0,0,0,.15-1.1Zm-4.52,1.1h-1a3,3,0,0,1-.24-1.1h1.12A4.29,4.29,0,0,0,148.92,23.93Zm.42-2.71a3.88,3.88,0,0,1,.35-.63,3.8,3.8,0,0,1,.64-.71h.08v1.35Zm1.07.25v1.1H149a3.51,3.51,0,0,1,.21-1.1Zm-2.32-.25a2.9,2.9,0,0,1,1.8-1.28,4.87,4.87,0,0,0-.4.5,4,4,0,0,0-.43.78Zm2.32,1.61v1.1h-1.23a4.29,4.29,0,0,1-.17-1.1Zm-2.77-.26a2.88,2.88,0,0,1,.31-1.1h1a3.82,3.82,0,0,0-.21,1.1ZM149,24.19a3.46,3.46,0,0,0,.55,1,3.88,3.88,0,0,0,.39.42A3,3,0,0,1,148,24.19Zm1.41,0v1.46a3,3,0,0,1-1.14-1.46Z" style="fill:#25aae1"/><path d="M142.57,19.74a3,3,0,0,1,0,6H112.26a3,3,0,0,1,0-6h30.31m0-.31H112.26a3.31,3.31,0,0,0,0,6.62h30.31a3.31,3.31,0,1,0,0-6.62Z" style="fill:#4ecdf4"/><ellipse cx="154.45" cy="154.06" rx="21.36" ry="2.85" style="fill:#d2ebff;opacity:0.56"/><path d="M161.2,150.39h0s-3.79-.5-3.79-3.59V125.39H153.8V146.8c0,3.09-3.79,3.59-3.79,3.59h0a3.31,3.31,0,0,0-3.32,3.31h17.85A3.31,3.31,0,0,0,161.2,150.39Z" style="fill:#accfe5"/><path d="M172.76,125.39H138.42a6.57,6.57,0,0,1,6.48-5.4l10.69,0,10.68,0A6.58,6.58,0,0,1,172.76,125.39Z" style="fill:#accfe5"/><path d="M147.62,86.19s-5.21,7-5.91,13c-.49,4.29,5.91,10.69,5.91,10.69l2.21-1.1-2.2-5c-.78-2.42-1.75-3.37-1-5.81l1.6-3.43Z" style="fill:#1677d8"/><path d="M164.06,86.08s5.15,7.42,5.57,13.51c.37,5.25-5.93,10.31-5.93,10.31l-1.82-.91,2.52-5c.78-2.42,1.15-3.87.09-6.5l-1.36-2.88Z" style="fill:#1677d8"/><path d="M148.68,102l-3.45,11s15,1.91,19.55.67l-2.33-12,1.61-15.64a22.56,22.56,0,0,0-7-1.72c-3.54-.26-5.78.33-9.4,1.83Z" style="fill:#489bff"/><path d="M152.43,89.5a15.42,15.42,0,0,0,6.51-2.76.18.18,0,0,0,0-.25.18.18,0,0,0-.26,0s-3.65,2.69-7.13,2.74a.19.19,0,0,0-.18.19.18.18,0,0,0,.19.18A5.9,5.9,0,0,0,152.43,89.5Z" style="fill:#1677d8"/><polygon points="155.09 148.44 155.36 150.87 157.94 150.92 158.16 148.91 155.09 148.44" style="fill:#fba691"/><path d="M154.68,109.93s-6.69-.37-9,1.49-1.81,7.17.5,8.62,6.24,4.31,6.24,4.31l2.5,24.88,3.31.11s3.05-25,1.5-29.83A38,38,0,0,0,154.68,109.93Z" style="fill:#053272"/><path d="M158.58,148.11a2.75,2.75,0,0,1-.08,1.7l-3.81-.08a4.49,4.49,0,0,1-.07-1.67Z" style="fill:#073a93"/><path d="M164.15,109.74H146.59L145,100.26a1.35,1.35,0,0,1,1.33-1.58h18.14a1.35,1.35,0,0,1,1.33,1.58Z" style="fill:#fff;stroke:#25aae1;stroke-linecap:round;stroke-linejoin:round;stroke-width:2px"/><path d="M146.59,109.74h17.57a0,0,0,0,1,0,0v.19a1.88,1.88,0,0,1-1.88,1.88H148.47a1.88,1.88,0,0,1-1.88-1.88v-.19A0,0,0,0,1,146.59,109.74Z" style="fill:#25aae1"/><path d="M156.94,104.6a1.53,1.53,0,1,1-1.53-1.52A1.53,1.53,0,0,1,156.94,104.6Z" style="fill:#89caf7"/><polygon points="144.12 141.61 143.54 144.01 145.86 144.47 146.81 142.32 144.12 141.61" style="fill:#fba691"/><path d="M158.08,109.52s-4.48-1.55-7.1,1.7-7,30.63-7,30.63l3,1.24,9.69-24.32s7.89,4.5,8.84-1.9C166.26,111.8,158.08,109.52,158.08,109.52Z" style="fill:#073a93"/><path d="M147.65,141.83a2.9,2.9,0,0,1-.63,1.65l-3.71-1.31a4.53,4.53,0,0,1,.47-1.66Z" style="fill:#053272"/><path d="M145.31,143.61a13.65,13.65,0,0,0-1.82-.79c-.41-.08-3.82,2.34-4.79,2.32-1.76,0-2.32,2.53-1.32,2.88,2.88,1,8.22.89,8.22.89a23.24,23.24,0,0,0,1.21-4.29C146.83,143.54,146.07,144.1,145.31,143.61Z" style="fill:#1858b5"/><path d="M142.24,145.9a.2.2,0,0,0,.17,0,.21.21,0,0,0,.12-.27,3.31,3.31,0,0,0-.93-1.26,1.45,1.45,0,0,0-1.48-.14.2.2,0,0,0-.09.28.22.22,0,0,0,.29.08,1,1,0,0,1,1,.12,2.91,2.91,0,0,1,.78,1.07A.22.22,0,0,0,142.24,145.9Z" style="fill:#fff"/><path d="M142.94,145.42a.25.25,0,0,0,.17,0,.2.2,0,0,0,.12-.26,3.25,3.25,0,0,0-.93-1.27,1.5,1.5,0,0,0-1.48-.14.21.21,0,0,0-.09.28.21.21,0,0,0,.29.08,1,1,0,0,1,1,.12,3,3,0,0,1,.78,1.08A.22.22,0,0,0,142.94,145.42Z" style="fill:#fff"/><path d="M141.34,146.25a.18.18,0,0,0,.16,0,.2.2,0,0,0,.12-.26,3.13,3.13,0,0,0-.93-1.26,1.49,1.49,0,0,0-1.48-.15.2.2,0,0,0-.08.28.21.21,0,0,0,.28.09,1.06,1.06,0,0,1,1,.11,2.75,2.75,0,0,1,.78,1.08A.2.2,0,0,0,141.34,146.25Z" style="fill:#fff"/><path d="M156.35,150.76a14,14,0,0,1,1.84-.44c.41,0,3.21,2.83,4.12,3,1.66.25,1.76,2.77.76,2.93-2.87.47-7.87-.53-7.87-.53a22.5,22.5,0,0,1-.42-4.23C154.94,150.44,155.56,151.09,156.35,150.76Z" style="fill:#1858b5"/><path d="M158.86,153.42a.18.18,0,0,1-.16,0,.21.21,0,0,1-.07-.27,3.11,3.11,0,0,1,1.09-1,1.4,1.4,0,0,1,1.41.11.19.19,0,0,1,0,.28.2.2,0,0,1-.28,0,1,1,0,0,0-1-.06,2.65,2.65,0,0,0-.9.88A.23.23,0,0,1,158.86,153.42Z" style="fill:#fff"/><path d="M158.28,152.85a.23.23,0,0,1-.16,0,.2.2,0,0,1-.06-.27,3,3,0,0,1,1.08-1,1.39,1.39,0,0,1,1.41.11.2.2,0,0,1,0,.28.23.23,0,0,1-.29,0,1,1,0,0,0-1-.07,2.81,2.81,0,0,0-.91.88A.18.18,0,0,1,158.28,152.85Z" style="fill:#fff"/><path d="M159.65,153.9a.23.23,0,0,1-.16,0,.2.2,0,0,1-.06-.27,3,3,0,0,1,1.08-1,1.36,1.36,0,0,1,1.41.11.18.18,0,0,1,0,.27.21.21,0,0,1-.29,0,1,1,0,0,0-1-.06,2.71,2.71,0,0,0-.91.88A.18.18,0,0,1,159.65,153.9Z" style="fill:#fff"/><path d="M150.47,77.43s-2.15-3.67-.34-6.51,5.66-2.56,6.66-2.34,6.73,2.91,3.26,9.43Z" style="fill:#2e3062"/><path d="M150.83,76.39s-.87-1.16-1.52-.2.27,3.79,1.85,3.1Z" style="fill:#fb876b"/><path d="M150.82,78.41a.13.13,0,0,1-.13-.1,2.11,2.11,0,0,0-1.16-1.23.13.13,0,0,1-.08-.17.14.14,0,0,1,.17-.08A2.31,2.31,0,0,1,151,78.24a.15.15,0,0,1-.1.17Z" style="fill:#d45c48"/><path d="M149.9,78l-.07,0a.14.14,0,0,1,0-.19,1.3,1.3,0,0,1,.5-.4.14.14,0,0,1,.18.07.12.12,0,0,1-.07.17.94.94,0,0,0-.38.31A.14.14,0,0,1,149.9,78Z" style="fill:#d45c48"/><path d="M159.79,76.39s.87-1.16,1.51-.2-.27,3.79-1.85,3.1Z" style="fill:#fb876b"/><path d="M159.8,78.41a.14.14,0,0,0,.13-.1,2.08,2.08,0,0,1,1.16-1.23.13.13,0,0,0,.07-.17.13.13,0,0,0-.17-.08,2.3,2.3,0,0,0-1.32,1.41.14.14,0,0,0,.09.17Z" style="fill:#d45c48"/><path d="M160.71,78l.07,0a.13.13,0,0,0,0-.19,1.13,1.13,0,0,0-.5-.4.14.14,0,0,0-.18.07.12.12,0,0,0,.07.17,1,1,0,0,1,.39.31A.13.13,0,0,0,160.71,78Z" style="fill:#d45c48"/><path d="M157.45,81.69V84.5s-.84,1.44-2,1.53-2.14-1.23-2.14-1.23V81.88Z" style="fill:#fba691"/><path d="M157.45,81.69v1.25c-.77.84-2.12,1-4.12.76V81.88Z" style="fill:#fb876b"/><path d="M160.41,74.46a26.69,26.69,0,0,1-.36,3.55,6.56,6.56,0,0,1-.18.76c-.59,2.08-2.07,5.63-6.22,4.15-1.83-.65-2.68-2.69-3.06-4.77a20.53,20.53,0,0,1-.28-3.85,2.93,2.93,0,0,1,1.5-2.5,7.82,7.82,0,0,1,6.73-.22A2.94,2.94,0,0,1,160.41,74.46Z" style="fill:#fba691"/><path d="M154.19,70.45s5.47,8.78,6.23,5.56C161.49,71.45,158.22,68.62,154.19,70.45Z" style="fill:#2e3062"/><path d="M154,70.45c-3.64,0-5.45,4.17-3.76,4.66,2.35.68,4.39-2.65,5-3.8C154.79,71,154.37,70.75,154,70.45Z" style="fill:#2e3062"/><circle cx="156.99" cy="68.48" r="3.6" transform="translate(-14.25 64.92) rotate(-22.38)" style="fill:#2e3062"/><path d="M151,74.71a3.09,3.09,0,0,1-.1,1.84c-.39.74-.18,2,0,3.44a4.33,4.33,0,0,1-.65-2.26,20.64,20.64,0,0,0,0-3.11Z" style="fill:#2e3062"/><path d="M159.55,74.71a3,3,0,0,0,.11,1.84c.38.74.17,2,0,3.44a4.44,4.44,0,0,0,.65-2.26,18.22,18.22,0,0,1,0-3.11Z" style="fill:#2e3062"/><path d="M153.48,76.82c0,.3-.15.55-.35.55s-.34-.25-.34-.55.15-.54.34-.54S153.48,76.52,153.48,76.82Z" style="fill:#2e3062"/><path d="M157.75,76.82c0,.3-.15.55-.34.55s-.35-.25-.35-.55.15-.54.35-.54S157.75,76.52,157.75,76.82Z" style="fill:#2e3062"/><path d="M152.45,74.93a5.8,5.8,0,0,1,1.48-.22.26.26,0,0,1,.25.3h0a.26.26,0,0,1-.26.21,6.48,6.48,0,0,0-2,.25.43.43,0,0,1,.12-.28A.91.91,0,0,1,152.45,74.93Z" style="fill:#2e3062"/><path d="M158,75a5.72,5.72,0,0,0-1.48-.23.26.26,0,0,0-.26.3h0a.27.27,0,0,0,.27.21,6.42,6.42,0,0,1,2,.25.42.42,0,0,0-.11-.28A.87.87,0,0,0,158,75Z" style="fill:#2e3062"/><path d="M155.35,79a.59.59,0,0,1-.29-.07.41.41,0,0,1-.19-.33,19,19,0,0,1,.08-2.1.13.13,0,0,1,.14-.12.14.14,0,0,1,.13.14,19.76,19.76,0,0,0-.09,2,.19.19,0,0,0,.07.13.84.84,0,0,0,.54,0,.13.13,0,0,1,.17.07.12.12,0,0,1-.07.17A1.29,1.29,0,0,1,155.35,79Z" style="fill:#fb876b"/><path d="M153.66,79.88a1.58,1.58,0,0,0,1.56,1.44,1.53,1.53,0,0,0,1.57-1.44Z" style="fill:#f6f6f6"/><path d="M155.21,82.11a1.27,1.27,0,0,1-.63-.19.13.13,0,0,1,0-.18.14.14,0,0,1,.18,0h0a1,1,0,0,0,.49.15,1,1,0,0,0,.51-.15.15.15,0,0,1,.19,0,.14.14,0,0,1,0,.18A1.34,1.34,0,0,1,155.21,82.11Z" style="fill:#fb876b"/><path d="M187.68,48.53a4.76,4.76,0,0,1-4.76,4.76h-.52a4.76,4.76,0,0,1-4.76-4.76V48a4.76,4.76,0,0,1,4.76-4.76h.52A4.76,4.76,0,0,1,187.68,48" style="fill:#fbbe42"/><path d="M182.1,48.8a2.16,2.16,0,1,1,3.05-.12A2.15,2.15,0,0,1,182.1,48.8Zm2.45-2.65a1.45,1.45,0,1,0,.08,2.05A1.45,1.45,0,0,0,184.55,46.15Z" style="fill:#fff"/><path d="M179.71,51.39a.34.34,0,0,1,0-.5l2.39-2.59a.35.35,0,1,1,.52.48l-2.39,2.59A.34.34,0,0,1,179.71,51.39Z" style="fill:#fff"/></g></svg>