<svg xmlns="http://www.w3.org/2000/svg" xmlns:xlink="http://www.w3.org/1999/xlink" viewBox="0 0 178.5 187.5"><defs><clipPath id="c4783eed-f562-4fc4-a06f-e1f100bdd92b"><circle cx="50.68" cy="14.27" r="9.72" transform="translate(-1.92 11.92) rotate(-13.17)" style="fill:none"/></clipPath><clipPath id="b9fc906e-a12e-405b-bd8f-b9933e924048"><circle cx="17.58" cy="41.81" r="9.72" transform="translate(-24.42 24.68) rotate(-45)" style="fill:none"/></clipPath></defs><title>section2</title><g id="3b9e2217-eaec-4b84-bf6e-2ad044de5ebb" data-name="OBJECTS"><ellipse cx="95.3" cy="172.68" rx="74.86" ry="12.81" style="fill:#d2ebff;opacity:0.56"/><path d="M88.51,165.07c-26.25-5.53-46.25-24.95-57.85-56.18a163,163,0,0,1-9.43-43.68l-.45-8.91L91,31.49,161.17,56.3l-.45,8.91a162.31,162.31,0,0,1-9.42,43.68c-11.6,31.23-31.61,50.65-57.86,56.18l-2.46.52Z" style="fill:#4ecdf4;stroke:#25aae1;stroke-linecap:round;stroke-linejoin:round;stroke-width:2px"/><path d="M146.58,65.91,91,46.26h0L35.38,65.91s3.76,74.46,55.6,85.38h0C142.81,140.37,146.58,65.91,146.58,65.91Z" style="fill:#d2ebff"/><polygon points="90.84 143.72 116.33 140.07 138.74 140.07 158.77 144 124.32 161.36 90.84 143.72" style="fill:#073a93"/><path d="M137.64,162.06S92.53,137.27,87.21,145.4c-7.69,11.73,4.06,17.65,46,28.85Z" style="fill:#073a93"/><path d="M150.07,174.45h0a5.28,5.28,0,0,0-2.86-6.9l-10.42-4.31-4,9.76,10.41,4.32A5.3,5.3,0,0,0,150.07,174.45Z" style="fill:#1858b5"/><path d="M136.14,164.81l7.88,3.26a3.58,3.58,0,1,1-2.74,6.62l-7.88-3.26Z" style="fill:#489bff"/><path d="M133.43,171.36l10.42,4.31a5.28,5.28,0,0,0,6.48-2.07,5.52,5.52,0,0,1-.26.85,5.3,5.3,0,0,1-6.91,2.87L132.75,173Z" style="fill:#063272;opacity:0.45"/><path d="M136.88,171.52l1.66-4a.41.41,0,0,1,.52-.22h0a.4.4,0,0,1,.22.52l-1.67,4a.39.39,0,0,1-.52.22h0A.39.39,0,0,1,136.88,171.52Z" style="fill:#e6e6e6"/><path d="M139.33,172.54l1.67-4a.4.4,0,0,1,.52-.21h0a.4.4,0,0,1,.21.52l-1.66,4a.41.41,0,0,1-.52.22h0A.4.4,0,0,1,139.33,172.54Z" style="fill:#e6e6e6"/><path d="M142,173.65l1.66-4a.4.4,0,0,1,.52-.21h0a.4.4,0,0,1,.22.52l-1.67,4a.39.39,0,0,1-.52.21h0A.39.39,0,0,1,142,173.65Z" style="fill:#e6e6e6"/><path d="M154,128.56c-.7-2.38-4.15-6.42-7.22-14.69-3.19-8.61-16.78-9.53-16.78-9.53l-5.28,2.82-5.28-2.82s-13.59.92-16.78,9.53c-3.07,8.27-6.53,12.31-7.22,14.69s3,17.8,13.81,20h30.94C150.93,146.36,154.67,130.94,154,128.56Z" style="fill:#489bff"/><g id="dbb55a6f-b920-4565-a6fe-66280d60c506" data-name="&lt;Group&gt;"><path d="M130.57,104.39v4.23s-1,4.72-5.58,5.51a7.2,7.2,0,0,1-5.54-5.51v-4.23Z" style="fill:#f49290"/></g><path id="444625bb-34a0-4058-884c-c102e757a585" data-name="&lt;Path&gt;" d="M114.44,96.08S112.87,86.2,116.63,85c1-.33.27-3.59,6-3.63,7.81-.06,14-1.11,12.94,14.85Z" style="fill:#073a93"/><path d="M119.39,97.18a2.7,2.7,0,1,0-2.7,2.7A2.7,2.7,0,0,0,119.39,97.18Z" style="fill:#ffb5b1"/><path d="M135.84,97.18a2.7,2.7,0,1,0-2.7,2.7A2.7,2.7,0,0,0,135.84,97.18Z" style="fill:#ffb5b1"/><path d="M134,92.6h0A4.3,4.3,0,0,1,131.29,89l-1.18.33a18.08,18.08,0,0,1-10-.09l-.94-.24a4.3,4.3,0,0,1-2.79,3.59h0L116.28,97a14.6,14.6,0,0,0,2.79,8,7.52,7.52,0,0,0,12.11,0,14.62,14.62,0,0,0,2.8-8V92.61Z" style="fill:#ffb5b1"/><rect x="107.89" y="128.82" width="34.18" height="22.78" rx="2.87" ry="2.87" style="fill:#fff;stroke:#25aae1;stroke-linecap:round;stroke-linejoin:round;stroke-width:2px"/><circle cx="124.87" cy="139.98" r="3.55" style="fill:#89caf7"/><path d="M110.87,162.06S156,137.27,161.3,145.4c7.68,11.73-4.07,17.65-46,28.85Z" style="fill:#073a93"/><path d="M98.44,174.45h0a5.28,5.28,0,0,1,2.86-6.9l10.41-4.31,4.05,9.76-10.42,4.32A5.29,5.29,0,0,1,98.44,174.45Z" style="fill:#1858b5"/><path d="M115.11,171.43l-7.88,3.26a3.58,3.58,0,1,1-2.74-6.62l7.88-3.26Z" style="fill:#489bff"/><path d="M115.08,171.36l-10.42,4.31a5.28,5.28,0,0,1-6.48-2.07,5.52,5.52,0,0,0,.26.85,5.29,5.29,0,0,0,6.9,2.87L115.76,173Z" style="fill:#063272;opacity:0.45"/><path d="M111.63,171.52l-1.67-4a.4.4,0,0,0-.52-.22h0a.4.4,0,0,0-.21.52l1.66,4a.4.4,0,0,0,.52.22h0A.4.4,0,0,0,111.63,171.52Z" style="fill:#e6e6e6"/><path d="M109.18,172.54l-1.67-4a.4.4,0,0,0-.52-.21h0a.39.39,0,0,0-.21.52l1.66,4a.41.41,0,0,0,.52.22h0A.41.41,0,0,0,109.18,172.54Z" style="fill:#e6e6e6"/><path d="M106.48,173.65l-1.66-4a.4.4,0,0,0-.52-.21h0a.39.39,0,0,0-.22.52l1.67,4a.39.39,0,0,0,.52.21h0A.4.4,0,0,0,106.48,173.65Z" style="fill:#e6e6e6"/><path d="M42.05,144S30.1,125,33.8,122.19s7.32,8.47,9.21,6.66S36.42,111,40.43,107.56s3.71,8.27,7.11,10.44-1.84-16,2.23-18.79,6,6.18,6,6.18,4.51-18,10.58-14.44-9.3,21.61-5.69,21,7.32-6.72,10.45-2.61-17.38,14.58-14.09,14.31,9.11-4.34,10.12-.71-16.64,10.19-14.81,11.45,11.06-5.87,12.51-.62S45.72,147.37,42.05,144Z" style="fill:#073a93"/><path d="M40.6,151.48a62.13,62.13,0,0,0,5.53-12c.75-2.22,1.4-4.53,2-6.75.29-1,.57-2,.87-3A146.92,146.92,0,0,1,62.84,97.34l.24.13a147.11,147.11,0,0,0-13.81,32.29c-.29,1-.57,2-.86,3-.62,2.23-1.27,4.54-2,6.77a62.91,62.91,0,0,1-5.55,12.05Z" style="fill:#d2ebff"/><path d="M53.64,116.18a.13.13,0,0,1-.06-.07,61.41,61.41,0,0,1-2.7-12.66.14.14,0,0,1,.12-.15.14.14,0,0,1,.15.12A61.06,61.06,0,0,0,53.84,116a.14.14,0,0,1-.09.17A.14.14,0,0,1,53.64,116.18Z" style="fill:#d2ebff"/><path d="M52,121.14a.08.08,0,0,1,0,0,.13.13,0,0,1,0-.18,105.91,105.91,0,0,1,11.64-7.74A10.71,10.71,0,0,1,66,112.13a.14.14,0,0,1,.16.1.14.14,0,0,1-.1.17,9.85,9.85,0,0,0-2.38,1,106.81,106.81,0,0,0-11.61,7.72A.12.12,0,0,1,52,121.14Z" style="fill:#d2ebff"/><path d="M49.28,129.26l0,0a55.16,55.16,0,0,1-5-8.89,69.55,69.55,0,0,1-2.39-7.14A.13.13,0,0,1,42,113a.14.14,0,0,1,.17.09,71.45,71.45,0,0,0,2.38,7.11,54.21,54.21,0,0,0,4.94,8.84.14.14,0,0,1,0,.19A.12.12,0,0,1,49.28,129.26Z" style="fill:#d2ebff"/><path d="M49.24,129.39a.14.14,0,0,1-.05-.16.13.13,0,0,1,.17-.08,2.36,2.36,0,0,0,1.21,0,20.68,20.68,0,0,0,3.19-1l.58-.22c3-1.11,6.24-2,9.32-2.78a.13.13,0,0,1,.16.09.13.13,0,0,1-.09.17c-3.08.82-6.26,1.67-9.3,2.78l-.58.21a19.82,19.82,0,0,1-3.23,1,2.58,2.58,0,0,1-1.35,0Z" style="fill:#d2ebff"/><path d="M46,140.11c-3.57-2.45-7.67-9.07-10.09-14a.14.14,0,0,1,.07-.18.14.14,0,0,1,.18.06c2.4,4.89,6.46,11.46,10,13.89a.13.13,0,1,1-.15.22Z" style="fill:#d2ebff"/><path d="M46.2,140.21l-.09-.07a.13.13,0,0,1,0-.19.14.14,0,0,1,.19,0,2.26,2.26,0,0,0,2,.07l13-3.57a.13.13,0,0,1,.16.1.13.13,0,0,1-.09.16l-13,3.57A2.6,2.6,0,0,1,46.2,140.21Z" style="fill:#d2ebff"/><path d="M40.46,143.68s-20.68-9-19.2-13.34,10.85,2.83,11.39.27-15.56-11-14.22-16.1,7.75,4.72,11.79,4.58S19.65,107,21.4,102.32,29.89,104,29.89,104s-6.47-17.38.54-17.92,4.58,23.11,7.2,20.55,2.23-9.7,7.14-8.09-6.06,21.9-3.5,19.81,5-8.76,7.95-6.33-7.95,17.85-5.73,17.85,5.8-11.12,10-7.61S45.38,144.35,40.46,143.68Z" style="fill:#fff;stroke:#25aae1;stroke-linecap:round;stroke-linejoin:round;stroke-width:2px"/><path d="M43.49,150.65a62.18,62.18,0,0,0-2.24-13c-.64-2.27-1.42-4.54-2.17-6.73-.34-1-.68-2-1-3a147.46,147.46,0,0,1-6.94-34.53l.27,0a146.93,146.93,0,0,0,6.93,34.48c.33,1,.67,2,1,3,.75,2.2,1.53,4.47,2.17,6.74a62.86,62.86,0,0,1,2.25,13.09Z" style="fill:#25aae1"/><path d="M34.22,114.13a.11.11,0,0,1-.08,0,60.59,60.59,0,0,1-9.41-8.91.13.13,0,1,1,.2-.18,61.52,61.52,0,0,0,9.37,8.88.14.14,0,0,1,0,.19A.16.16,0,0,1,34.22,114.13Z" style="fill:#25aae1"/><path d="M35.65,119.17h0a.13.13,0,0,1-.08-.17,106,106,0,0,1,5.21-13,10.17,10.17,0,0,1,1.43-2.25.13.13,0,0,1,.2.18A10,10,0,0,0,41,106.12a106.52,106.52,0,0,0-5.2,13A.14.14,0,0,1,35.65,119.17Z" style="fill:#25aae1"/><path d="M38.05,127.4h0a55.31,55.31,0,0,1-9.14-4.52,69.19,69.19,0,0,1-6-4.54.12.12,0,0,1,0-.18.13.13,0,0,1,.19,0,70.12,70.12,0,0,0,6,4.51,54.38,54.38,0,0,0,9.09,4.5.13.13,0,0,1,.08.17A.17.17,0,0,1,38.05,127.4Z" style="fill:#25aae1"/><path d="M38.09,127.52a.13.13,0,0,1-.13-.1.14.14,0,0,1,.09-.17,2.25,2.25,0,0,0,1-.67A20.89,20.89,0,0,0,41.13,124l.35-.51c1.89-2.65,4-5.16,6.11-7.58a.13.13,0,1,1,.2.17c-2.07,2.42-4.21,4.93-6.09,7.57l-.35.5a21.43,21.43,0,0,1-2.1,2.67,2.62,2.62,0,0,1-1.13.75Z" style="fill:#25aae1"/><path d="M41.47,138.22c-4.34,0-11.47-3.13-16.26-5.82a.14.14,0,0,1-.05-.18.15.15,0,0,1,.19-.06c4.76,2.68,11.84,5.79,16.12,5.79a.14.14,0,0,1,.14.14A.13.13,0,0,1,41.47,138.22Z" style="fill:#25aae1"/><path d="M41.72,138.18h-.11a.13.13,0,0,1-.13-.14.15.15,0,0,1,.15-.13c.65,0,1.2-.48,1.7-1.07l8.73-10.34a.13.13,0,1,1,.2.17L43.53,137A2.57,2.57,0,0,1,41.72,138.18Z" style="fill:#25aae1"/><path d="M31.31,146.87l3.3,20.44a6,6,0,0,0,5.91,5H50.58a6,6,0,0,0,5.91-5l3.3-20.44Z" style="fill:#d2ebff"/><path d="M59.79,146.87H31.31l.46,2.83h22l-2.84,17.61a6,6,0,0,1-5.91,5h5.61a6,6,0,0,0,5.91-5l2.84-17.61h0Z" style="fill:#accfe5"/><path d="M60.11,141H31a3,3,0,0,0-3,3h0a3,3,0,0,0,3,3H60.11a3,3,0,0,0,3-3h0A3,3,0,0,0,60.11,141Z" style="fill:#d2ebff"/><path d="M175.69,40.53V64.87A3.13,3.13,0,0,1,172.58,68H128.09A3.14,3.14,0,0,1,125,64.87V40.53a3.13,3.13,0,0,1,3.13-3.12h44.49A3.12,3.12,0,0,1,175.69,40.53Z" style="fill:#fff;stroke:#25aae1;stroke-linecap:round;stroke-linejoin:round;stroke-width:2px"/><rect x="124.96" y="45.94" width="50.73" height="6.88" style="fill:#4ecdf4;stroke:#25aae1;stroke-linecap:round;stroke-linejoin:round;stroke-width:2px"/><path d="M171.76,56.82H159.14A1.15,1.15,0,0,0,158,58h0a1.15,1.15,0,0,0,1.15,1.14h12.62A1.14,1.14,0,0,0,172.91,58h0A1.14,1.14,0,0,0,171.76,56.82Z" style="fill:#25aae1"/><path d="M171.76,61.31H166a1.14,1.14,0,0,0-1.15,1.14h0A1.14,1.14,0,0,0,166,63.6h5.73a1.14,1.14,0,0,0,1.15-1.15h0A1.14,1.14,0,0,0,171.76,61.31Z" style="fill:#25aae1"/></g><g id="c011dc67-e4c5-4b7b-9d18-104e50138adf" data-name="Layer 4"><rect x="35.19" y="1.92" width="75.73" height="23.98" rx="7.29" ry="7.29" style="fill:#d2ebff;opacity:0.56"/><path d="M68.65,9.92l.46,1.44a.25.25,0,0,0,.23.17h1.51A.24.24,0,0,1,71,12l-1.23.88a.25.25,0,0,0-.08.28l.46,1.43a.24.24,0,0,1-.37.27L68.56,14a.23.23,0,0,0-.29,0l-1.22.88a.24.24,0,0,1-.37-.27l.46-1.43a.26.26,0,0,0-.09-.28L65.83,12a.24.24,0,0,1,.15-.44h1.5a.26.26,0,0,0,.24-.17l.46-1.44A.25.25,0,0,1,68.65,9.92Z" style="fill:#fbbe42"/><path d="M77,9.92l.47,1.44a.24.24,0,0,0,.23.17h1.51a.24.24,0,0,1,.14.44l-1.22.88a.27.27,0,0,0-.09.28l.47,1.43a.24.24,0,0,1-.38.27L76.93,14a.21.21,0,0,0-.28,0l-1.22.88a.24.24,0,0,1-.38-.27l.47-1.43a.27.27,0,0,0-.09-.28L74.21,12a.24.24,0,0,1,.14-.44h1.51a.24.24,0,0,0,.23-.17l.47-1.44A.24.24,0,0,1,77,9.92Z" style="fill:#fbbe42"/><path d="M85.4,9.92l.46,1.44a.26.26,0,0,0,.24.17h1.5a.24.24,0,0,1,.15.44l-1.22.88a.26.26,0,0,0-.09.28l.46,1.43a.24.24,0,0,1-.37.27L85.31,14A.23.23,0,0,0,85,14l-1.22.88a.24.24,0,0,1-.37-.27l.46-1.43a.25.25,0,0,0-.08-.28L82.58,12a.24.24,0,0,1,.15-.44h1.51a.25.25,0,0,0,.23-.17l.46-1.44A.25.25,0,0,1,85.4,9.92Z" style="fill:#fbbe42"/><path d="M93.77,9.92l.47,1.44a.25.25,0,0,0,.23.17H96a.24.24,0,0,1,.14.44l-1.22.88a.27.27,0,0,0-.09.28l.47,1.43a.24.24,0,0,1-.37.27L93.69,14a.23.23,0,0,0-.29,0l-1.22.88a.24.24,0,0,1-.38-.27l.47-1.43a.26.26,0,0,0-.09-.28L91,12a.24.24,0,0,1,.14-.44h1.51a.24.24,0,0,0,.23-.17l.47-1.44A.24.24,0,0,1,93.77,9.92Z" style="fill:#fbbe42"/><path d="M102.15,9.92l.47,1.44a.24.24,0,0,0,.23.17h1.51a.24.24,0,0,1,.14.44l-1.22.88a.26.26,0,0,0-.09.28l.47,1.43a.24.24,0,0,1-.38.27L102.06,14a.21.21,0,0,0-.28,0l-1.23.88a.24.24,0,0,1-.37-.27l.47-1.43a.27.27,0,0,0-.09-.28L99.34,12a.24.24,0,0,1,.14-.44H101a.25.25,0,0,0,.23-.17l.47-1.44A.24.24,0,0,1,102.15,9.92Z" style="fill:#b1d7dd"/><rect x="65.73" y="17.24" width="24.36" height="0.68" style="fill:#b1d7dd"/><rect x="65.73" y="6.1" width="24.36" height="1.28" style="fill:#379cf7"/><rect x="65.73" y="19.81" width="24.36" height="0.68" style="fill:#b1d7dd"/><rect x="65.73" y="22.2" width="11.13" height="0.68" style="fill:#b1d7dd"/><circle cx="50.68" cy="14.27" r="9.72" transform="translate(-1.92 11.92) rotate(-13.17)" style="fill:#7bc7ff"/><g style="clip-path:url(#c4783eed-f562-4fc4-a06f-e1f100bdd92b)"><path d="M55.5,20.16l-.85-9c0-2.31-.9-4.42-3.34-3.79h0a2.92,2.92,0,0,0-3.37.41,5.16,5.16,0,0,0-1.5,3.68l-.95,8.73Z" style="fill:#0a4d7a"/><g id="6b912a3a-b401-401c-bbb9-22711aaea1d8" data-name="&lt;Group&gt;"><path d="M52.12,15.55v2s-.27,1.55-1.57,1.81A2.28,2.28,0,0,1,49,17.52v-2Z" style="fill:#ffa683"/></g><path d="M52.12,15.26v1.26a3.24,3.24,0,0,1-1.57.4,3.3,3.3,0,0,1-1.57-.4V15.26Z" style="fill:#e57c5c"/><path d="M53.74,11.28a3.57,3.57,0,0,1-2.39-1.16c-.88.77-4,1.16-4,1.16l0,1.22a5.27,5.27,0,0,0,1,2.89,2.71,2.71,0,0,0,4.36,0,5.19,5.19,0,0,0,1-2.89Z" style="fill:#ffa683"/><path d="M58.33,20.81c-1.23-2.12-6.45-3.29-6.45-3.29l-1.37.53-1.37-.53s-5.22,1.17-6.45,3.29L41.18,32.23l2.4,0L45,22.66a21.48,21.48,0,0,1,.84,4.88,39.8,39.8,0,0,1-.61,4.77h10.6a39.8,39.8,0,0,1-.61-4.77A21.48,21.48,0,0,1,56,22.66l1.4,9.54,2.4,0Z" style="fill:#ffa683"/><path d="M54.74,18.41a4.39,4.39,0,0,1-8.43,0A12.57,12.57,0,0,0,44,19.56l.94,3.1a.59.59,0,0,0,0,.08v-.08l.1.36,0,.11a19.18,19.18,0,0,1,.71,4.41,39.8,39.8,0,0,1-.61,4.77h10.6a39.8,39.8,0,0,1-.61-4.77A21.48,21.48,0,0,1,56,22.66l0,.13.06-.13.94-3.08A11.73,11.73,0,0,0,54.74,18.41Z" style="fill:#379cf7"/></g><rect x="2.09" y="29.46" width="75.73" height="23.98" rx="7.29" ry="7.29" style="fill:#d2ebff;opacity:0.56"/><path d="M35.54,37.46,36,38.9a.24.24,0,0,0,.23.17h1.51a.24.24,0,0,1,.14.44l-1.22.88a.27.27,0,0,0-.09.28l.47,1.43a.24.24,0,0,1-.38.27l-1.22-.88a.21.21,0,0,0-.28,0L34,42.37a.24.24,0,0,1-.38-.27L34,40.67a.26.26,0,0,0-.09-.28l-1.22-.88a.24.24,0,0,1,.14-.44h1.51a.24.24,0,0,0,.23-.17l.47-1.44A.24.24,0,0,1,35.54,37.46Z" style="fill:#fbbe42"/><path d="M43.92,37.46l.46,1.44a.26.26,0,0,0,.24.17h1.51a.24.24,0,0,1,.14.44l-1.22.88a.26.26,0,0,0-.09.28l.47,1.43a.24.24,0,0,1-.38.27l-1.22-.88a.23.23,0,0,0-.29,0l-1.22.88A.24.24,0,0,1,42,42.1l.46-1.43a.25.25,0,0,0-.08-.28l-1.23-.88a.24.24,0,0,1,.15-.44h1.51A.25.25,0,0,0,43,38.9l.47-1.44A.24.24,0,0,1,43.92,37.46Z" style="fill:#fbbe42"/><path d="M52.29,37.46l.47,1.44a.25.25,0,0,0,.23.17H54.5a.24.24,0,0,1,.14.44l-1.22.88a.27.27,0,0,0-.09.28l.47,1.43a.24.24,0,0,1-.37.27l-1.22-.88a.23.23,0,0,0-.29,0l-1.22.88a.24.24,0,0,1-.38-.27l.47-1.43a.26.26,0,0,0-.09-.28l-1.22-.88a.24.24,0,0,1,.14-.44h1.51a.24.24,0,0,0,.23-.17l.47-1.44A.24.24,0,0,1,52.29,37.46Z" style="fill:#fbbe42"/><path d="M60.67,37.46l.47,1.44a.24.24,0,0,0,.23.17h1.51a.24.24,0,0,1,.14.44l-1.22.88a.26.26,0,0,0-.09.28l.47,1.43a.24.24,0,0,1-.38.27l-1.22-.88a.21.21,0,0,0-.28,0l-1.23.88a.24.24,0,0,1-.37-.27l.47-1.43a.27.27,0,0,0-.09-.28l-1.22-.88a.24.24,0,0,1,.14-.44h1.51a.25.25,0,0,0,.23-.17l.47-1.44A.24.24,0,0,1,60.67,37.46Z" style="fill:#fbbe42"/><path d="M69.05,37.46l.46,1.44a.26.26,0,0,0,.23.17h1.51a.24.24,0,0,1,.15.44l-1.22.88a.24.24,0,0,0-.09.28l.46,1.43a.24.24,0,0,1-.37.27L69,41.49a.23.23,0,0,0-.29,0l-1.22.88a.24.24,0,0,1-.37-.27l.46-1.43a.24.24,0,0,0-.09-.28l-1.22-.88a.24.24,0,0,1,.15-.44h1.51a.26.26,0,0,0,.23-.17l.46-1.44A.25.25,0,0,1,69.05,37.46Z" style="fill:#fbbe42"/><rect x="32.63" y="44.78" width="24.36" height="0.68" style="fill:#b1d7dd"/><rect x="32.63" y="33.64" width="24.36" height="1.28" style="fill:#379cf7"/><rect x="32.63" y="47.35" width="24.36" height="0.68" style="fill:#b1d7dd"/><rect x="32.63" y="49.74" width="11.13" height="0.68" style="fill:#b1d7dd"/><circle cx="17.58" cy="41.81" r="9.72" transform="translate(-24.42 24.68) rotate(-45)" style="fill:#7bc7ff"/><g style="clip-path:url(#b9fc906e-a12e-405b-bd8f-b9933e924048)"><path d="M28.26,56.06l-.63-5.61a3.11,3.11,0,0,0-1.4-2.23L24.29,47v0l-1.61-.62L21,45.7l-1.35-.52-.6-.23-1.49.76L16.11,45l-.52.2-1.27.49-1.73.67L10.93,47v0L9,48.22a3.11,3.11,0,0,0-1.4,2.23L7,56.06H11v4.67H24.25V56.06Z" style="fill:#fbbe42"/><path d="M17.67,35.09h0a4,4,0,0,0-4,4V41h7.93V39.06A4,4,0,0,0,17.67,35.09Z" style="fill:#0a4d7a"/><g id="2c1bb559-abc2-4bc6-9960-335828b99e9c" data-name="&lt;Group&gt;"><path d="M19.24,43.91V45.3l0,.11c-.2.82-.9,2.4-1.57,2.38s-1.35-1.63-1.51-2.46V43.91Z" style="fill:#ffa683"/></g><path d="M19.24,43.63v1.24a3.22,3.22,0,0,1-1.56.39,3.19,3.19,0,0,1-1.55-.39V43.63Z" style="fill:#e57c5c"/><path d="M15.58,41a1,1,0,1,0-1,1A1,1,0,0,0,15.58,41Z" style="fill:#ffa683"/><path d="M21.61,41a1,1,0,1,0-1,1A1,1,0,0,0,21.61,41Z" style="fill:#ffa683"/><path d="M20.84,39.33a6.6,6.6,0,0,1-1.6-1.14H16.11c-.25.71-1.55,1.14-1.55,1.14l0,1.56a5.14,5.14,0,0,0,1,2.86,2.61,2.61,0,0,0,.94.81,2.79,2.79,0,0,0,1.21.28,2.65,2.65,0,0,0,2.16-1.09,5.14,5.14,0,0,0,1-2.86Z" style="fill:#ffa683"/></g><circle cx="85.17" cy="75.52" r="15.62" style="fill:#fff;stroke:#25aae1;stroke-linecap:round;stroke-linejoin:round;stroke-width:2px"/><path d="M84.13,71.5h-.61v2.76a1.14,1.14,0,0,1-.24.8.83.83,0,0,1-.63.26.82.82,0,0,1-.65-.27,1.2,1.2,0,0,1-.22-.79V67.65a1.09,1.09,0,0,1,.25-.81,1.11,1.11,0,0,1,.81-.26h2.83a9.23,9.23,0,0,1,1,0,2.43,2.43,0,0,1,.75.21,2.16,2.16,0,0,1,.72.48,2.12,2.12,0,0,1,.47.74,2.38,2.38,0,0,1,.16.89,2.13,2.13,0,0,1-.54,1.53,3.13,3.13,0,0,1-1.64.81,3.26,3.26,0,0,1,.88.73,7.43,7.43,0,0,1,.75,1,6.84,6.84,0,0,1,.52,1,2,2,0,0,1,.18.6.61.61,0,0,1-.1.34.76.76,0,0,1-.3.26.85.85,0,0,1-.43.1.89.89,0,0,1-.5-.14,1.42,1.42,0,0,1-.34-.35l-.39-.62-.69-1.16a6.25,6.25,0,0,0-.68-1,1.67,1.67,0,0,0-.6-.46A2.09,2.09,0,0,0,84.13,71.5Zm1-3.61h-1.6v2.36h1.56a4,4,0,0,0,1-.11,1.16,1.16,0,0,0,.65-.37,1,1,0,0,0,.23-.71,1.08,1.08,0,0,0-.69-1A3.48,3.48,0,0,0,85.12,67.89Z" style="fill:#fbbe42"/><path d="M84,83.88l-1.38-5.47v5.93a1,1,0,0,1-.22.73.73.73,0,0,1-.58.25.75.75,0,0,1-.58-.24,1.06,1.06,0,0,1-.22-.74v-6.8a.86.86,0,0,1,.29-.76,1.42,1.42,0,0,1,.79-.2h.54a2,2,0,0,1,.71.09.62.62,0,0,1,.32.32,4.94,4.94,0,0,1,.24.74l1.25,4.71,1.25-4.71a4.94,4.94,0,0,1,.24-.74.61.61,0,0,1,.33-.32,2,2,0,0,1,.7-.09h.54a1.4,1.4,0,0,1,.79.2.84.84,0,0,1,.29.76v6.8a1,1,0,0,1-.22.73.79.79,0,0,1-1.15,0,1,1,0,0,1-.23-.73V78.41l-1.37,5.47c-.09.35-.17.62-.22.78a1.07,1.07,0,0,1-.32.46.93.93,0,0,1-.63.2.92.92,0,0,1-.51-.13,1,1,0,0,1-.33-.34,2.25,2.25,0,0,1-.19-.45C84.1,84.23,84.05,84.06,84,83.88Z" style="fill:#fbbe42"/></g><g id="6b1c3a57-b1f7-4459-a11a-6d970ae8eef0" data-name="Layer 9"><g id="128d99db-ac9b-4242-aafc-1f16a9531534" data-name="&lt;Group&gt;"><line x1="119.23" y1="19.98" x2="121.73" y2="19.98" style="fill:none;stroke:#25aae1;stroke-miterlimit:10;stroke-width:2px"/><line x1="123.75" y1="19.98" x2="158.15" y2="19.98" style="fill:none;stroke:#25aae1;stroke-miterlimit:10;stroke-width:2px;stroke-dasharray:5.058499813079834,2.023399829864502"/><line x1="159.16" y1="19.98" x2="161.66" y2="19.98" style="fill:none;stroke:#25aae1;stroke-miterlimit:10;stroke-width:2px"/></g><g id="01dd44e5-7b82-4488-8fa7-be3b2bd97d37" data-name="&lt;Group&gt;"><line x1="113.75" y1="25.9" x2="116.25" y2="25.9" style="fill:none;stroke:#25aae1;stroke-miterlimit:10;stroke-width:2px"/><line x1="118.27" y1="25.9" x2="152.67" y2="25.9" style="fill:none;stroke:#25aae1;stroke-miterlimit:10;stroke-width:2px;stroke-dasharray:5.058499813079834,2.023399829864502"/><line x1="153.68" y1="25.9" x2="156.18" y2="25.9" style="fill:none;stroke:#25aae1;stroke-miterlimit:10;stroke-width:2px"/></g></g></svg>