<svg xmlns="http://www.w3.org/2000/svg" viewBox="0 0 159.3 187.8"><title>section3</title><g id="bcea97c9-e53e-4a5d-b780-65193d47cb9c" data-name="OBJECTS"><ellipse cx="78.1" cy="171.48" rx="74.86" ry="12.81" style="fill:#d2ebff;opacity:0.56"/><path d="M137.85,121.72c0-9.62-6.79-19.26-15.17-19.26s-15.17,9.64-15.17,19.26,6.79,17.41,15.17,17.41S137.85,131.33,137.85,121.72Z" style="fill:#67b8ef"/><path d="M122.68,102.46a11.15,11.15,0,0,0-3.89.74c6.48,2.39,11.27,10.45,11.27,18.52s-4.79,14.83-11.27,16.81a13.57,13.57,0,0,0,3.89.6c8.38,0,15.17-7.8,15.17-17.41S131.06,102.46,122.68,102.46Z" style="fill:#34648c;opacity:0.25"/><path d="M49.25,121.72c0-9.62-6.79-19.26-15.16-19.26s-15.17,9.64-15.17,19.26,6.79,17.41,15.17,17.41S49.25,131.33,49.25,121.72Z" style="fill:#67b8ef"/><path d="M34.09,102.46a11.25,11.25,0,0,0-3.9.74c6.49,2.39,11.28,10.45,11.28,18.52s-4.79,14.83-11.28,16.81a13.7,13.7,0,0,0,3.9.6c8.37,0,15.16-7.8,15.16-17.41S42.46,102.46,34.09,102.46Z" style="fill:#34648c;opacity:0.25"/><path d="M20.44,138.3l3.31,20.44a6,6,0,0,0,5.9,5H39.71a6,6,0,0,0,5.91-5l3.3-20.44Z" style="fill:#d2ebff"/><path d="M48.92,138.3H20.44l.46,2.83h22L40,158.74a6,6,0,0,1-5.9,5h5.6a6,6,0,0,0,5.91-5l2.85-17.61h0Z" style="fill:#accfe5"/><path d="M49.24,132.42H20.12a3,3,0,0,0-3,3h0a3,3,0,0,0,3,3H49.24a3,3,0,0,0,3-3h0A3,3,0,0,0,49.24,132.42Z" style="fill:#d2ebff"/><path d="M107.78,138.3l3.3,20.44a6,6,0,0,0,5.9,5h10.07a6,6,0,0,0,5.9-5l3.31-20.44Z" style="fill:#d2ebff"/><path d="M136.26,138.3H107.78l.45,2.83h22l-2.85,17.61a6,6,0,0,1-5.9,5h5.61a6,6,0,0,0,5.9-5l2.85-17.61h0Z" style="fill:#accfe5"/><path d="M136.57,132.42H107.46a3,3,0,0,0-3,3h0a3,3,0,0,0,3,3h29.11a3,3,0,0,0,3-3h0A3,3,0,0,0,136.57,132.42Z" style="fill:#d2ebff"/><path d="M113.76,98H132.1a4.43,4.43,0,0,0,4.45-4.29v-.17a6.88,6.88,0,0,0-6.67-6.86,7.17,7.17,0,0,0-1.86.21,5.85,5.85,0,0,0-11.49.34,5.57,5.57,0,0,0-1.79-.2,5.83,5.83,0,0,0-5.6,5.92,5.76,5.76,0,0,0,.8,2.88A4.43,4.43,0,0,0,113.76,98Z" style="fill:#073a93"/><path d="M107.16,32.49l-65.68-.13a9.31,9.31,0,0,0-9.3,9.26l-.22,112a9.32,9.32,0,0,0,9.27,9.31l65.68.13a9.31,9.31,0,0,0,9.3-9.26l.22-112A9.32,9.32,0,0,0,107.16,32.49Z" style="fill:#4ecdf4;stroke:#25aae1;stroke-linecap:round;stroke-linejoin:round;stroke-width:2px"/><path d="M106.57,40.17l-7.2,0a1.85,1.85,0,0,0-1.52.81l-1.7,2.57a9.49,9.49,0,0,1-7.93,4.24l-27.86-.06a9.47,9.47,0,0,1-7.91-4.27l-1.69-2.58a1.83,1.83,0,0,0-1.51-.81L42,40a1.81,1.81,0,0,0-1.81,1.81L40,153.44a1.81,1.81,0,0,0,1.81,1.81l64.53.14a1.81,1.81,0,0,0,1.81-1.81L108.38,42A1.81,1.81,0,0,0,106.57,40.17Z" style="fill:#d2ebff"/><rect x="85.13" y="48.65" width="72.19" height="32.36" rx="2.49" ry="2.49" transform="translate(0.14 -0.25) rotate(0.12)" style="fill:#fff;stroke:#25aae1;stroke-linecap:round;stroke-linejoin:round;stroke-width:2px"/><path d="M148.71,56.41H123.8a1.69,1.69,0,0,0-1.69,1.69h0a1.69,1.69,0,0,0,1.69,1.69h24.91a1.69,1.69,0,0,0,1.69-1.69h0A1.69,1.69,0,0,0,148.71,56.41Z" style="fill:#25aae1"/><path d="M142.8,64.22H129.71A1.69,1.69,0,0,0,128,65.91h0a1.69,1.69,0,0,0,1.69,1.69H142.8a1.69,1.69,0,0,0,1.69-1.69h0A1.69,1.69,0,0,0,142.8,64.22Z" style="fill:#25aae1"/><path d="M146.88,71.93H125.63a1.69,1.69,0,0,0-1.69,1.69h0a1.69,1.69,0,0,0,1.69,1.68h21.25a1.69,1.69,0,0,0,1.69-1.68h0A1.69,1.69,0,0,0,146.88,71.93Z" style="fill:#25aae1"/><path d="M16.09,67.24H39.68a5.7,5.7,0,0,0,5.73-5.52V61.5a8.83,8.83,0,0,0-8.58-8.82,8.94,8.94,0,0,0-2.39.26,7.53,7.53,0,0,0-14.78.44,7.66,7.66,0,0,0-2.31-.26,7.53,7.53,0,0,0-6.18,11.33A5.69,5.69,0,0,0,16.09,67.24Z" style="fill:#fff;stroke:#25aae1;stroke-linecap:round;stroke-linejoin:round;stroke-width:2px"/><path d="M80.76,27.24H99.1A4.43,4.43,0,0,0,103.55,23v-.17a6.88,6.88,0,0,0-6.67-6.86,7.17,7.17,0,0,0-1.86.21,5.85,5.85,0,0,0-11.49.34,5.57,5.57,0,0,0-1.79-.2,5.83,5.83,0,0,0-5.6,5.92,5.76,5.76,0,0,0,.8,2.88A4.43,4.43,0,0,0,80.76,27.24Z" style="fill:#fff;stroke:#25aae1;stroke-linecap:round;stroke-linejoin:round;stroke-width:2px"/><path d="M110,55.35a.88.88,0,0,1-.87-.88V50.61a.88.88,0,0,1,1.75,0v3.86A.89.89,0,0,1,110,55.35Z" style="fill:#25aae1"/><path d="M110,61.49a.87.87,0,0,1-.87-.87V56.76a.88.88,0,1,1,1.75,0v3.86A.88.88,0,0,1,110,61.49Z" style="fill:#25aae1"/><path d="M110,67.64a.87.87,0,0,1-.87-.88V62.9a.88.88,0,0,1,1.75,0v3.86A.88.88,0,0,1,110,67.64Z" style="fill:#25aae1"/><path d="M110,73.78a.87.87,0,0,1-.87-.87V69.05a.88.88,0,0,1,1.75,0v3.86A.88.88,0,0,1,110,73.78Z" style="fill:#25aae1"/><path d="M110,79.93a.87.87,0,0,1-.87-.88V75.2a.88.88,0,1,1,1.75,0v3.85A.88.88,0,0,1,110,79.93Z" style="fill:#25aae1"/><rect x="1.97" y="76.61" width="72.19" height="32.36" rx="2.49" ry="2.49" transform="translate(0.19 -0.08) rotate(0.12)" style="fill:#fff;stroke:#25aae1;stroke-linecap:round;stroke-linejoin:round;stroke-width:2px"/><path d="M65.55,84.37H40.64A1.69,1.69,0,0,0,39,86.06h0a1.69,1.69,0,0,0,1.69,1.69H65.55a1.69,1.69,0,0,0,1.69-1.69h0A1.69,1.69,0,0,0,65.55,84.37Z" style="fill:#25aae1"/><path d="M59.64,92.18H46.55a1.69,1.69,0,0,0-1.69,1.69h0a1.69,1.69,0,0,0,1.69,1.69H59.64a1.69,1.69,0,0,0,1.69-1.69h0A1.69,1.69,0,0,0,59.64,92.18Z" style="fill:#25aae1"/><path d="M63.72,99.89H42.47a1.69,1.69,0,0,0-1.69,1.68h0a1.69,1.69,0,0,0,1.69,1.69H63.72a1.69,1.69,0,0,0,1.69-1.69h0A1.69,1.69,0,0,0,63.72,99.89Z" style="fill:#25aae1"/><path d="M26.85,83.3a.88.88,0,0,1-.88-.87V78.57a.88.88,0,0,1,1.75,0v3.86A.87.87,0,0,1,26.85,83.3Z" style="fill:#25aae1"/><path d="M26.85,89.45a.88.88,0,0,1-.88-.87V84.72a.88.88,0,1,1,1.75,0v3.86A.87.87,0,0,1,26.85,89.45Z" style="fill:#25aae1"/><path d="M26.85,95.6a.88.88,0,0,1-.88-.88V90.86a.88.88,0,0,1,1.75,0v3.86A.87.87,0,0,1,26.85,95.6Z" style="fill:#25aae1"/><path d="M26.85,101.74a.88.88,0,0,1-.88-.87V97a.88.88,0,1,1,1.75,0v3.86A.87.87,0,0,1,26.85,101.74Z" style="fill:#25aae1"/><path d="M26.85,107.89A.88.88,0,0,1,26,107v-3.85a.88.88,0,1,1,1.75,0V107A.87.87,0,0,1,26.85,107.89Z" style="fill:#25aae1"/><rect x="53.75" y="117.19" width="72.19" height="32.36" rx="2.49" ry="2.49" transform="translate(0.28 -0.19) rotate(0.12)" style="fill:#fff;stroke:#25aae1;stroke-linecap:round;stroke-linejoin:round;stroke-width:2px"/><path d="M117.33,125H92.41a1.69,1.69,0,0,0-1.69,1.69h0a1.69,1.69,0,0,0,1.69,1.69h24.92a1.69,1.69,0,0,0,1.69-1.69h0A1.69,1.69,0,0,0,117.33,125Z" style="fill:#25aae1"/><path d="M111.42,132.76H98.32a1.69,1.69,0,0,0-1.68,1.69h0a1.69,1.69,0,0,0,1.68,1.69h13.1a1.69,1.69,0,0,0,1.68-1.69h0A1.69,1.69,0,0,0,111.42,132.76Z" style="fill:#25aae1"/><path d="M115.5,140.47H94.24a1.69,1.69,0,0,0-1.69,1.68h0a1.69,1.69,0,0,0,1.69,1.69H115.5a1.69,1.69,0,0,0,1.69-1.69h0A1.69,1.69,0,0,0,115.5,140.47Z" style="fill:#25aae1"/><path d="M78.62,123.88a.87.87,0,0,1-.87-.87v-3.86a.88.88,0,0,1,1.75,0V123A.87.87,0,0,1,78.62,123.88Z" style="fill:#25aae1"/><path d="M78.62,130a.87.87,0,0,1-.87-.87V125.3a.88.88,0,1,1,1.75,0v3.86A.87.87,0,0,1,78.62,130Z" style="fill:#25aae1"/><path d="M78.62,136.18a.88.88,0,0,1-.87-.88v-3.86a.88.88,0,0,1,1.75,0v3.86A.88.88,0,0,1,78.62,136.18Z" style="fill:#25aae1"/><path d="M78.62,142.32a.87.87,0,0,1-.87-.87v-3.86a.88.88,0,1,1,1.75,0v3.86A.87.87,0,0,1,78.62,142.32Z" style="fill:#25aae1"/><path d="M78.62,148.47a.87.87,0,0,1-.87-.88v-3.86a.88.88,0,0,1,1.75,0v3.86A.87.87,0,0,1,78.62,148.47Z" style="fill:#25aae1"/></g><g id="276213f5-75c5-42fc-a4ce-2e9caa9da1d6" data-name="Layer 6"><path d="M102.18,64.12c-2,0-3.41,1.59-3.41,4.31s1.44,4.36,3.41,4.36,3.42-1.62,3.42-4.36S104.15,64.12,102.18,64.12Zm0,6.95c-.69,0-1.25-.69-1.25-2.64s.56-2.6,1.25-2.6,1.26.65,1.26,2.6S102.87,71.07,102.18,71.07Zm-6.66-8.13c0-2.72-1.44-4.31-3.41-4.31s-3.39,1.59-3.39,4.31,1.42,4.36,3.39,4.36S95.52,65.69,95.52,62.94Zm-3.41,2.64c-.69,0-1.25-.69-1.25-2.64s.56-2.59,1.25-2.59,1.26.67,1.26,2.59S92.8,65.58,92.11,65.58ZM100,58.63,92.59,72.79h1.78l7.35-14.16Z" style="fill:#fbbe42"/><path d="M70.8,132.66c-2,0-3.42,1.59-3.42,4.31s1.45,4.36,3.42,4.36,3.41-1.62,3.41-4.36S72.77,132.66,70.8,132.66Zm0,7c-.69,0-1.26-.69-1.26-2.64s.57-2.6,1.26-2.6,1.25.65,1.25,2.6S71.49,139.61,70.8,139.61Zm-6.66-8.13c0-2.72-1.45-4.31-3.42-4.31s-3.39,1.59-3.39,4.31,1.43,4.36,3.39,4.36S64.14,134.23,64.14,131.48Zm-3.42,2.64c-.69,0-1.25-.69-1.25-2.64s.56-2.59,1.25-2.59,1.26.67,1.26,2.59S61.42,134.12,60.72,134.12Zm7.86-7-7.37,14.16H63l7.35-14.16Z" style="fill:#fbbe42"/><path d="M12.76,88.78h-.61v2.76a1.14,1.14,0,0,1-.24.8.81.81,0,0,1-.62.26.82.82,0,0,1-.65-.27,1.22,1.22,0,0,1-.23-.79V84.93a1.12,1.12,0,0,1,.26-.82,1.09,1.09,0,0,1,.81-.25h2.83a9.23,9.23,0,0,1,1,0,2.43,2.43,0,0,1,.75.2,2.18,2.18,0,0,1,1.19,1.22,2.42,2.42,0,0,1,.16.89,2.18,2.18,0,0,1-.54,1.54,3.13,3.13,0,0,1-1.64.81,3.41,3.41,0,0,1,.88.73,7.43,7.43,0,0,1,.75,1,7.36,7.36,0,0,1,.52,1,2,2,0,0,1,.18.6.57.57,0,0,1-.11.34.73.73,0,0,1-.29.26,1,1,0,0,1-.43.1.89.89,0,0,1-.5-.14,1.42,1.42,0,0,1-.34-.35c-.1-.14-.23-.35-.39-.62l-.7-1.16a5.84,5.84,0,0,0-.67-1,1.54,1.54,0,0,0-.6-.46A2.11,2.11,0,0,0,12.76,88.78Zm1-3.61H12.15v2.36h1.56a4.54,4.54,0,0,0,1.06-.11,1.19,1.19,0,0,0,.65-.37,1.05,1.05,0,0,0,.23-.72,1.16,1.16,0,0,0-.18-.63,1.13,1.13,0,0,0-.51-.4A3.48,3.48,0,0,0,13.76,85.17Z" style="fill:#fbbe42"/><path d="M12.64,101.16l-1.37-5.48v5.93a1.11,1.11,0,0,1-.22.74.74.74,0,0,1-.59.25.72.72,0,0,1-.57-.25,1.06,1.06,0,0,1-.22-.74V94.82a.86.86,0,0,1,.29-.76,1.42,1.42,0,0,1,.79-.2h.54A2.07,2.07,0,0,1,12,94a.59.59,0,0,1,.32.32,4.94,4.94,0,0,1,.24.74l1.25,4.7L15.06,95a4.94,4.94,0,0,1,.24-.74.59.59,0,0,1,.32-.32,2.07,2.07,0,0,1,.71-.09h.54a1.42,1.42,0,0,1,.79.2.86.86,0,0,1,.29.76v6.79a1.06,1.06,0,0,1-.22.74.72.72,0,0,1-.59.25.69.69,0,0,1-.56-.25,1.06,1.06,0,0,1-.23-.74V95.68L15,101.16c-.09.35-.17.61-.22.78a1,1,0,0,1-.32.45.89.89,0,0,1-.63.21,1.08,1.08,0,0,1-.52-.13.87.87,0,0,1-.32-.34,2.11,2.11,0,0,1-.19-.46C12.74,101.51,12.69,101.34,12.64,101.16Z" style="fill:#fbbe42"/></g><g id="16f41445-1dd3-403a-a10e-541922095890" data-name="Layer 10"><g id="d4e342a5-a8c6-4738-be5d-a2159df19649" data-name="&lt;Group&gt;"><g id="ba92501e-808a-4b37-897b-cb1120513d07" data-name="&lt;Group&gt;"><line id="0f90debe-2fb3-4a42-9847-c59db30bd4d9" data-name="&lt;Path&gt;" x1="23.64" y1="17.55" x2="26.14" y2="17.55" style="fill:none;stroke:#25aae1;stroke-miterlimit:10;stroke-width:2px"/><line id="5877a258-673c-4a23-8114-ee377068fbeb" data-name="&lt;Path&gt;" x1="28.17" y1="17.55" x2="62.56" y2="17.55" style="fill:none;stroke:#25aae1;stroke-miterlimit:10;stroke-width:2px;stroke-dasharray:5.058499813079834,2.023400068283081"/><line id="34424830-f6d5-4ccd-8d1c-8533d1a98b80" data-name="&lt;Path&gt;" x1="63.58" y1="17.55" x2="66.08" y2="17.55" style="fill:none;stroke:#25aae1;stroke-miterlimit:10;stroke-width:2px"/></g></g><g id="7b1d7446-a00b-4666-bb40-40c9a7259b57" data-name="&lt;Group&gt;"><g id="c05eec16-acb0-4956-8051-f54d498f7e78" data-name="&lt;Group&gt;"><line id="0a316385-c636-4822-b041-c61d1f2fd378" data-name="&lt;Path&gt;" x1="8.98" y1="23.76" x2="11.48" y2="23.76" style="fill:none;stroke:#25aae1;stroke-miterlimit:10;stroke-width:2px"/><line id="33d6d53a-8c96-4d5c-89d9-984ccc0afbfe" data-name="&lt;Path&gt;" x1="13.5" y1="23.76" x2="47.9" y2="23.76" style="fill:none;stroke:#25aae1;stroke-miterlimit:10;stroke-width:2px;stroke-dasharray:5.058499813079834,2.023400068283081"/><line id="d0d5514e-58a0-4598-842d-61451e8cf626" data-name="&lt;Path&gt;" x1="48.91" y1="23.76" x2="51.41" y2="23.76" style="fill:none;stroke:#25aae1;stroke-miterlimit:10;stroke-width:2px"/></g></g></g></svg>